<svg xmlns="http://www.w3.org/2000/svg" width="1em" height="1em" viewBox="0 0 200 200" xml:space="preserve"><path fill="#3A5897" d="M189.155 152.411c0 19.86-16.098 35.962-35.962 35.962H45.662c-19.86 0-35.962-16.098-35.962-35.962V44.88c0-19.86 16.098-35.962 35.962-35.962h107.53c19.86 0 35.962 16.098 35.962 35.962v107.531z"/><path fill="#FFF" d="M99.328 188.373h28.128v-69.718h23.341l3.583-27.205h-26.93V74.078c0-4.409.917-7.718 2.758-9.925 1.835-2.207 5.393-3.308 10.659-3.308h14.431V36.582c-4.965-.734-11.948-1.101-20.956-1.101-10.603 0-19.09 3.14-25.462 9.42-6.367 6.285-9.558 15.124-9.558 26.522v20.033H75.885v27.205h23.438v69.712h.005z"/></svg>