<svg xmlns="http://www.w3.org/2000/svg" width="1em" height="1em" viewBox="0 0 200 200" xml:space="preserve"><path fill="#37A5ED" d="M189.052 151.974c0 19.721-15.986 35.712-35.712 35.712H46.559c-19.721 0-35.712-15.986-35.712-35.712V45.193c0-19.721 15.986-35.712 35.712-35.712H153.34c19.721 0 35.712 15.986 35.712 35.712v106.781z"/><path fill="#FFF" d="M150.141 72.846c-.587 44.53-29.076 75.043-71.581 76.967-17.534.795-30.235-4.865-41.295-11.89 12.964 2.075 29.025-3.113 37.625-10.473-12.705-1.245-20.212-7.699-23.746-18.101 3.67.643 7.527.466 11.025-.278-11.455-3.842-19.645-10.919-20.076-25.77 3.219 1.473 6.575 2.84 11.025 3.113-8.585-4.88-14.917-22.708-7.648-34.512 12.736 13.966 28.053 25.355 53.201 26.894-6.317-26.98 29.455-41.624 44.408-23.487 6.333-1.23 11.475-3.619 16.426-6.231-2.04 6.267-5.973 10.645-10.746 14.158 5.259-.709 9.901-1.989 13.88-3.963-2.46 5.11-7.856 9.711-12.498 13.573z"/></svg>