<svg xmlns="http://www.w3.org/2000/svg" width="1em" height="1em" viewBox="0 0 200 200" xml:space="preserve"><path fill="#D33F42" d="M164.851 111.386c-1.581-2.804-3.631-5.279-6.144-7.434-2.513-2.155-4.884-3.743-7.114-4.75-2.23-1.007-4.205-1.655-5.928-1.939v.015c-2.155-.432-3.557-1.081-4.198-1.939-.641-.858-.753-1.648-.328-2.371l.649-1.074c.142-.142.283-.358.433-.649.149-.291.433-.902.865-1.834.425-.932.753-1.864.969-2.804.224-.932.403-2.088.537-3.452.142-1.365.104-2.662-.112-3.885-.209-1.223-.641-2.55-1.298-3.989a13.295 13.295 0 0 0-2.699-3.885c-2.013-2.013-4.638-3.311-7.874-3.885a29.44 29.44 0 0 0-9.701-.112c-3.229.5-6.286 1.148-9.157 1.939s-5.242 1.544-7.114 2.259l-2.804 1.297c-1.439.432-2.625.723-3.557.865-.932.142-1.655.104-2.162-.112-.507-.216-.902-.432-1.186-.649-.283-.216-.395-.723-.328-1.514.067-.79.142-1.476.216-2.051.075-.574.253-1.476.537-2.699.283-1.223.499-2.192.649-2.908 0-1.722-.112-3.341-.328-4.847s-.686-3.199-1.402-5.063c-.716-1.864-1.76-3.37-3.124-4.526-1.365-1.148-3.087-2.088-5.175-2.804-2.08-.716-4.78-.932-8.083-.649-3.311.283-7.039 1.148-11.207 2.587-5.033 1.722-10.133 4.273-15.308 7.65-5.175 3.37-9.664 6.897-13.474 10.558a247.81 247.81 0 0 0-10.462 10.67c-3.169 3.445-5.607 6.249-7.33 8.411l-2.371 3.452c-4.742 6.181-8.262 12.363-10.558 18.544-2.304 6.181-3.378 10.849-3.236 14.011v4.526c.865 6.897 2.983 13.079 6.36 18.544 3.37 5.466 7.404 9.88 12.072 13.258 4.675 3.37 10.171 6.249 16.494 8.627 6.323 2.371 12.393 4.101 18.216 5.175s11.968 1.834 18.432 2.259c10.633.865 21.669.037 33.092-2.476 11.423-2.513 22.056-6.867 31.906-13.049 9.85-6.181 16.785-13.586 20.804-22.206 2.446-5.033 3.698-9.776 3.773-14.234.099-4.423-.654-8.055-2.242-10.858z"/><path fill="#FFF" d="M119.269 150.845c-10.998 8.269-24.107 12.751-39.341 13.474l-.008.007c-15.524.716-28.708-2.304-39.557-9.06-10.849-6.756-16.27-15.308-16.27-25.658 0-10.208 5.391-19.007 16.173-26.411 10.775-7.404 24.002-11.461 39.669-12.184s28.887 1.864 39.669 7.762c10.775 5.898 16.173 13.944 16.173 24.144-.014 10.359-5.509 19.665-16.508 27.926z"/><path d="M104.379 123.033a27.679 27.679 0 0 0-4.847-10.022c-2.297-3.02-5.712-5.361-10.238-7.009-4.526-1.648-9.738-2.118-15.629-1.402l.008.007c-4.168.432-7.904 1.402-11.207 2.908-3.311 1.506-5.898 3.229-7.762 5.175-1.864 1.946-3.452 4.027-4.75 6.249-1.298 2.229-2.192 4.422-2.699 6.577-.507 2.155-.828 4.131-.969 5.928-.149 1.79-.216 3.191-.216 4.198l.216 1.722v.865c0 .432.142 1.297.433 2.587.291 1.29.686 2.476 1.186 3.557.499 1.081 1.327 2.267 2.476 3.564a15.118 15.118 0 0 0 4.101 3.236c9.492 4.601 18.328 5.995 26.515 4.198s14.801-5.928 19.834-12.393c2.013-2.446 3.34-5.458 3.989-9.06.64-3.6.498-7.224-.441-10.885zm-29.513 16.926c-.932 1.439-2.192 2.655-3.773 3.661a11.054 11.054 0 0 1-5.175 1.722l-.008.015c-.865.142-1.693.179-2.476.112a9.498 9.498 0 0 1-2.162-.432 21.258 21.258 0 0 1-1.939-.753 4.442 4.442 0 0 1-1.618-1.186 20.47 20.47 0 0 1-1.186-1.514 6.552 6.552 0 0 1-.865-1.722 6.277 6.277 0 0 1-.328-2.051c0-1.581.433-3.124 1.298-4.638.865-1.506 2.05-2.804 3.564-3.885a9.8 9.8 0 0 1 5.063-1.834c1.29-.142 2.55-.104 3.773.112 1.223.216 2.267.574 3.124 1.074.858.5 1.618 1.074 2.259 1.722a5.77 5.77 0 0 1 1.402 2.259c.283.865.433 1.797.433 2.804.016 1.589-.454 3.095-1.386 4.534zm10.767-11.96a8.217 8.217 0 0 1-1.402 1.834c-1.007.716-2.05 1.044-3.124.969-1.074-.067-1.834-.537-2.259-1.402l-.433-.865a1.947 1.947 0 0 1-.216-.865v-.865c0-.432.075-.79.216-1.074l.433-.865c.142-.291.358-.507.649-.649l.649-.865c1.148-.865 2.259-1.223 3.341-1.074 1.074.149 1.834.723 2.259 1.722.433.574.611 1.223.537 1.939a5.347 5.347 0 0 1-.65 2.06z"/><path fill="#F29C48" d="M160.758 84.773c.865 0 1.655-.216 2.371-.649a5.342 5.342 0 0 0 1.722-1.618 5.554 5.554 0 0 0 .865-2.051c.142-.142.216-.358.216-.649 1.722-16.389-4.027-25.725-17.247-28.029-3.885-.716-7.479-.79-10.782-.216-1.007 0-1.872.254-2.587.753a6.813 6.813 0 0 0-1.834 1.939c-.507.79-.753 1.618-.753 2.476 0 1.439.499 2.662 1.514 3.661 1.007 1.007 2.23 1.506 3.661 1.514 11.215-2.587 17.247 1.007 18.112 10.782.291 2.446.142 4.742-.433 6.897 0 1.439.499 2.662 1.514 3.661 1.006 1.022 2.229 1.522 3.661 1.529z"/><path fill="#F29C48" d="M157.104 23.988c-6.323-1.439-14.809-1.156-25.442.865-.142 0-.283.075-.433.216l-.216.432-.216.216c-1.581.432-2.878 1.335-3.885 2.699-1.007 1.365-1.514 2.841-1.514 4.422 0 2.155.723 3.952 2.162 5.391s3.162 2.155 5.175 2.162h.649c.142 0 .47-.075.969-.216a11.371 11.371 0 0 1 1.618-.328 10.128 10.128 0 0 0 1.834-.432c.656-.216 1.23-.432 1.722-.649.499-.216 1.469-.328 2.908-.328s3.206.112 5.287.328c2.08.216 4.377.753 6.897 1.618a56.27 56.27 0 0 1 7.546 3.236c2.513 1.297 5.026 3.087 7.546 5.391 2.52 2.297 4.712 4.959 6.577 7.971 3.736 8.478 4.459 16.673 2.162 24.577a.949.949 0 0 1-.112.432c-.075.149-.179.507-.328 1.074a40.219 40.219 0 0 1-.433 1.618 19.455 19.455 0 0 0-.433 1.939c-.142.783-.216 1.469-.216 2.051 0 1.29.358 2.371 1.074 3.236a5.8 5.8 0 0 0 2.699 1.834c1.081.358 2.334.537 3.773.537 4.027 0 6.398-2.446 7.114-7.337 1.722-5.607 2.699-10.961 2.908-16.061.209-5.1-.142-9.589-1.074-13.474-.932-3.877-2.334-7.509-4.198-10.887-1.864-3.37-4.019-6.249-6.472-8.627a52.379 52.379 0 0 0-8.195-6.472c-3.012-1.946-5.928-3.49-8.732-4.638a58.73 58.73 0 0 0-8.721-2.796z"/></svg>