<?xml version="1.0" standalone="no"?><!DOCTYPE svg PUBLIC "-//W3C//DTD SVG 1.1//EN" "http://www.w3.org/Graphics/SVG/1.1/DTD/svg11.dtd"><svg t="1762182150021" class="icon" viewBox="0 0 1024 1024" version="1.1" xmlns="http://www.w3.org/2000/svg" p-id="13694" xmlns:xlink="http://www.w3.org/1999/xlink" width="32" height="32"><path d="M814.751267 399.073702c110.191544-0.100174 199.436677-89.465516 199.546868-199.536851C1014.187944 89.37536 924.942811 0.100174 814.751267 0c-110.191544 0.100174-199.436677 89.37536-199.536851 199.566903a197.9541 197.9541 0 0 0 8.494766 57.459882L343.532156 388.465262a198.615249 198.615249 0 0 0-134.233336-52.340983C99.20745 336.224453 9.852126 425.489621 9.751952 535.66113c0.100174 110.191544 89.455499 199.436677 199.546868 199.536851a199.226311 199.226311 0 0 0 157.904483-78.045665l252.028095 127.090919a199.69713 199.69713 0 0 0 195.519869 239.756765c110.191544-0.100174 199.436677-89.355325 199.526834-199.546869-0.180313-110.161492-89.435464-199.456712-199.526834-199.526833a199.727182 199.727182 0 0 0-172.880515 100.17413l-244.424879-123.384476a201.059498 201.059498 0 0 0 11.49999-66.044805 197.803839 197.803839 0 0 0-25.043533-96.467688l267.444895-125.438046a199.206277 199.206277 0 0 0 163.404042 85.308289" fill="#ffffff" p-id="13695"></path><path d="M814.751267 62.999511A136.547358 136.547358 0 1 1 678.264014 199.496782 136.53734 136.53734 0 0 1 814.751267 62.999511M209.248733 672.1584a136.497271 136.497271 0 1 1 136.457201-136.49727c0 75.360999-61.10622 136.397097-136.487253 136.49727M814.751267 687.875721A136.527323 136.527323 0 1 1 678.264014 824.453131a136.53734 136.53734 0 0 1 136.487253-136.57741" fill="#ffffff" p-id="13696"></path></svg>