<?xml version="1.0" standalone="no"?><!DOCTYPE svg PUBLIC "-//W3C//DTD SVG 1.1//EN" "http://www.w3.org/Graphics/SVG/1.1/DTD/svg11.dtd"><svg t="1762182067886" class="icon" viewBox="0 0 1024 1024" version="1.1" xmlns="http://www.w3.org/2000/svg" p-id="7227" xmlns:xlink="http://www.w3.org/1999/xlink" width="32" height="32"><path d="M940.544 330.752c-23.552-55.296-56.832-105.472-99.84-147.968-43.008-43.008-92.672-76.288-147.968-99.84C635.392 58.368 573.952 46.08 511.488 46.08c-62.976 0-123.904 12.288-181.248 36.864-55.296 23.552-105.472 56.832-147.968 99.84-43.008 43.008-76.288 92.672-99.84 147.968C57.856 388.096 45.568 449.536 45.568 512s12.288 123.904 36.864 181.248c23.552 55.296 56.832 105.472 99.84 147.968 43.008 43.008 92.672 76.288 147.968 99.84 57.344 24.576 118.784 36.864 181.248 36.864 62.976 0 123.904-12.288 181.248-36.864 55.296-23.552 105.472-56.832 147.968-99.84 43.008-43.008 76.288-92.672 99.84-147.968C965.12 635.904 977.408 574.464 977.408 512s-12.288-123.904-36.864-181.248zM510.976 927.744C281.6 927.744 95.232 741.376 95.232 512S281.6 96.256 510.976 96.256C740.352 96.256 926.72 282.624 926.72 512S740.352 927.744 510.976 927.744z" p-id="7228" fill="#ffffff"></path><path d="M689.664 316.928h-18.432c16.896-23.552 19.456-32.768 19.456-39.424 0-3.584-1.024-9.216-6.656-14.848-3.072-3.072-6.656-5.632-10.752-7.168-5.632-2.048-11.776-2.048-17.408 0.512s-10.24 7.68-12.8 13.824c-5.632 9.728-11.264 19.456-16.896 28.16-4.096 6.656-8.704 12.8-12.8 18.944h-77.824v-58.88c0-10.24-6.656-22.528-25.088-22.528-18.432 0-24.576 12.288-24.576 22.528v58.88h-73.216c-5.632-10.24-11.776-20.48-18.432-30.72-4.096-6.144-7.68-11.264-10.752-15.36-3.072-4.096-5.632-7.168-7.68-9.216-5.12-5.12-11.264-7.68-17.408-7.68-8.704 0-16.384 5.12-20.992 13.824-2.56 5.632-5.632 16.384 5.632 29.184 5.632 5.632 10.752 12.288 15.872 19.456H327.68c-17.92 0-30.72 4.096-39.936 12.288-9.728 8.704-14.336 20.992-14.336 37.888v63.488c0 10.24 6.656 22.528 24.576 22.528 18.432 0 25.088-12.288 25.088-22.528v-62.464c0-1.024 0-1.536 1.024-2.56s1.536-1.024 2.048-1.024h368.128c3.584 0 7.68 0 7.68 15.36 0 11.776-3.072 27.136-8.704 44.544-8.704 14.848-0.512 25.088 2.048 28.16 5.632 5.632 12.288 8.704 19.968 8.704 20.48 0 26.624-27.648 28.672-37.888 4.096-19.456 6.144-34.304 6.144-44.544 0-20.48-5.12-35.84-15.36-46.08-9.728-10.24-25.088-15.36-45.056-15.36z" fill="#ffffff" p-id="7229"></path><path d="M386.048 513.536c5.12 1.024 10.752 1.024 17.92 1.024h209.92c16.384 0 28.16-4.096 35.84-11.776 8.192-8.192 11.776-20.48 11.776-37.376v-26.624c0-15.872-3.584-28.16-10.24-36.352-7.68-8.704-19.968-13.312-37.376-13.312H404.48c-7.168 0-12.8 0.512-18.432 1.024-7.68 1.024-13.824 4.096-17.92 9.216-4.096 4.608-7.168 10.24-8.704 17.408-1.024 5.632-2.048 12.8-2.048 21.504v25.088c0 9.216 0.512 16.896 2.048 23.04 1.536 7.68 4.608 13.312 9.216 17.92 4.096 5.12 10.24 8.192 17.408 9.216z m18.432-74.752v-3.072h209.408v28.672c0 2.56-0.512 4.096 0 4.096H404.992c-0.512-0.512-1.024-1.536-1.024-4.608v-25.088zM733.696 742.4l-2.048-1.024c-1.536-0.512-5.12-2.56-10.752-5.632-6.144-3.072-14.848-7.68-26.112-13.312-10.752-5.632-22.016-11.264-33.792-16.384-11.264-5.12-22.528-10.752-34.304-16.384l-56.32-26.624c-22.528-9.728-27.648-10.752-31.232-10.752-7.68 0-14.336 3.584-16.896 8.704-0.512 0.512-0.512 1.024-1.024 1.536 6.656-19.968 10.24-40.448 10.24-61.952 0-11.264-5.632-19.456-14.336-23.04h131.584c2.048 0 3.072 0 4.096 0.512 0.512 1.024 1.024 3.072 1.024 7.68v98.304c0 14.848 9.728 24.064 24.064 24.064 14.848 0 24.576-9.728 24.576-24.064V580.096c0-17.92-4.096-30.72-11.776-38.912-8.192-8.192-20.992-12.288-39.936-12.288h-279.04c-17.408 0-30.208 4.096-38.912 12.8s-13.312 21.504-13.312 38.4V686.08c0 14.848 9.728 24.064 24.064 24.064 14.848 0 24.576-9.728 24.576-24.064V584.704c0-8.192 1.536-8.192 5.12-8.192h122.368c-8.704 3.584-13.824 11.776-13.824 23.04-0.512 33.792-6.656 58.88-17.92 74.752-11.264 15.872-29.696 28.672-54.784 38.4-26.624 9.728-64.512 18.432-113.664 25.088-23.552 4.608-25.6 20.48-25.6 25.6 0 11.264 6.656 24.064 26.112 24.064 23.04 0 57.344-7.168 105.472-21.504 50.688-14.848 85.504-37.888 102.912-68.608 4.096-7.168 8.192-14.848 11.264-22.528 0 1.024-0.512 1.536-0.512 2.048 0 13.824 14.336 19.968 18.944 22.528 31.232 13.312 60.928 26.624 88.576 40.96 27.648 13.824 54.272 28.16 79.36 43.008 6.144 3.584 12.288 5.632 17.92 5.632 3.584 0 6.656-0.512 9.728-2.048 9.728-3.584 15.36-12.288 15.36-22.016 2.048-8.192-2.56-15.872-11.264-22.528z" fill="#ffffff" p-id="7230"></path></svg>