<?xml version="1.0" standalone="no"?><!DOCTYPE svg PUBLIC "-//W3C//DTD SVG 1.1//EN" "http://www.w3.org/Graphics/SVG/1.1/DTD/svg11.dtd"><svg t="1762168721662" class="icon" viewBox="0 0 1024 1024" version="1.1" xmlns="http://www.w3.org/2000/svg" p-id="7038" xmlns:xlink="http://www.w3.org/1999/xlink" width="32" height="32"><path d="M205.736229 889.50784s156.768549-7.835063 260.953234-8.788846c115.758811-1.059109 300.163657 8.788846 300.163657 8.788846l191.318309 21.632731s-298.896823 17.712274-491.481966 17.577692C277.796571 928.586606 2.925714 911.140571 2.925714 911.140571l202.810515-21.632731z" fill="#000000" opacity=".5" p-id="7039"></path><path d="M836.660663 27.879131c7.931611-0.848457 14.113646 2.88768 18.054583 6.977829 3.6864 3.820983 6.240549 8.674743 8.127634 13.241783 3.826834 9.271589 6.691109 21.884343 8.981943 36.091611 4.62848 28.724663 7.510309 67.978971 9.514423 109.927863 1.963154 41.109211 3.09248 84.494629 4.128183 124.205349v0.002925c1.102994 42.358491 2.097737 80.533211 3.879497 107.297646 13.355886 31.978057 20.550217 67.206583 20.550217 105.393006 0 196.324206-220.891429 355.474286-430.08 355.474286-191.634286 0-430.08-159.15008-430.08-355.474286 0-45.073554 10.023497-86.030629 28.373577-122.382629 1.418971-24.63744 2.399086-57.2416 3.466971-93.145965l0.032183-1.073738c1.18784-39.89504 2.486857-83.587657 4.640183-124.032731 2.165029-40.676206 5.216549-78.68416 10.008869-106.487223 2.369829-13.745006 5.3248-26.0096 9.274514-35.047131 1.948526-4.46464 4.590446-9.210149 8.367543-12.925806 4.060891-3.990674 10.181486-7.396206 17.835154-6.582857 7.53664 0.79872 16.372297 4.918126 24.576 9.414948 8.838583 4.847909 19.242423 11.465874 30.602972 19.245349 22.762057 15.582354 50.284251 36.466103 78.493988 58.806857 45.518263 36.056503 93.315657 76.317257 126.692206 105.202834C420.369554 218.363611 449.702766 216.502857 479.817143 216.502857c38.654537 0 76.02176 3.069074 111.504823 9.040457 29.441463-29.88032 74.8544-72.165669 118.482651-109.644068 26.164663-22.475337 51.946057-43.446857 73.476389-59.099429 10.746149-7.811657 20.66432-14.476434 29.186925-19.365303 7.893577-4.529006 16.56832-8.739109 24.192732-9.555383zM571.98592 252.138057a14.628571 14.628571 0 0 0 25.368869 9.394469c1.304869-1.41312 2.68288-2.884754 4.128182-4.411977 64.769463 12.680046 121.592686 35.61472 166.598949 67.013485C838.805211 373.47328 880.64 443.614354 880.64 531.017143c0 86.683063-48.871131 167.842377-125.48096 228.407588C678.622354 819.928503 577.416046 857.234286 479.817143 857.234286c-88.491154 0-189.87008-37.086354-269.057463-98.043612C131.408457 698.107611 78.994286 616.901486 78.994286 531.017143c0-36.521691 7.305509-70.029897 20.968594-100.264229a14.611017 14.611017 0 0 0 6.790583-11.383954l0.18432-2.747246c19.330194-36.041874 48.128-67.033966 84.611657-92.48768 50.66752-35.345554 116.308846-59.971291 191.409006-71.308434a2412.906789 2412.906789 0 0 1 11.103085 9.74848 14.628571 14.628571 0 0 0 23.996709-14.005394C438.105234 246.710857 458.722743 245.76 479.817143 245.76c31.925394 0 62.756571 2.176731 92.168777 6.378057z m53.885806-19.733943c28.113189-27.60704 66.080183-62.598583 102.996845-94.3104 25.883794-22.235429 50.9952-42.636434 71.61856-57.63072 10.330697-7.513234 19.303863-13.49632 26.54208-17.650834 3.347017-1.922194 6.155703-3.352869 8.431909-4.344686 0.111177 0.251611 0.222354 0.517851 0.339383 0.79872 2.495634 6.0416 4.938606 15.930514 7.138743 29.578972 4.350537 26.989714 7.176777 64.845531 9.17504 106.671543 1.878309 39.333303 3.019337 82.516846 4.07552 122.476251v0.02048c0.482743 18.20672 0.945006 35.743451 1.451154 51.940206-49.82784-67.332389-131.961417-114.570971-231.769234-137.549532zM247.243337 139.740891c37.209234 29.476571 76.007131 61.82912 107.02848 88.33024-104.102766 20.052846-190.870674 65.606217-244.814994 132.242286 0.468114-13.902994 0.912823-28.69248 1.366308-43.955931l0.029258-0.904046c1.18784-40.006217 2.481006-83.41504 4.613851-123.517806 2.156251-40.538697 5.143406-77.080869 9.6256-103.069988 2.267429-13.151086 4.757211-22.592366 7.252846-28.306286 0.125806-0.292571 0.248686-0.561737 0.365714-0.816274l0.04096 0.017554c2.510263 1.024 5.67296 2.554149 9.493943 4.64896 7.641966 4.189623 17.153463 10.204891 28.142446 17.729829 21.937006 15.020617 48.850651 35.421623 76.855588 57.601462z" fill="#A0776D" p-id="7040"></path><path d="M883.565714 532.269349c0 184.32-207.368777 333.74208-403.748571 333.74208-179.902171 0-403.748571-149.42208-403.748572-333.74208S254.595657 236.982857 479.817143 236.982857c225.221486 0 403.748571 110.966491 403.748571 295.286492z" fill="#FFD4D4" p-id="7041"></path><path d="M134.582857 59.977143c34.028983 3.680549 217.965714 157.988571 275.017143 209.188571-209.188571 74.605714-239.908571 105.325714-302.811429 160.914286-3.452343-103.511771-6.237623-373.783406 27.794286-370.102857zM833.828571 58.514286c-34.034834 3.662994-191.634286 162.377143-251.611428 213.577143 121.417143 33.645714 210.651429 122.88 277.942857 163.84 3.449417-103.029029 7.706331-381.080137-26.331429-377.417143z" fill="#FFD4D4" p-id="7042"></path><path d="M145.706423 111.177143C179.881691 131.31776 310.924434 268.899474 292.571429 275.017143c-57.051429 19.017143-156.83584 89.512229-168.228572 103.862857-11.389806 14.350629 0.099474-258.638994 21.363566-267.702857z m671.147154 0c-34.175269 20.140617-176.941349 139.81696-160.03072 149.211428 52.662857 29.257143 174.390126 123.157943 185.782857 137.508572 11.392731 14.350629-4.488046-277.656137-25.752137-286.72z" fill="#FFE2DB" p-id="7043"></path><path d="M345.234286 863.603566c0 11.0592-2.884754 18.733349-7.176777 24.640365-4.514377 6.217143-11.881326 12.220709-23.309166 17.451886C291.158309 916.50048 255.657691 921.6 212.114286 921.6s-79.044023-5.09952-102.634057-15.904183c-11.42784-5.231177-18.794789-11.234743-23.309166-17.451886-4.292023-5.907017-7.176777-13.581166-7.176777-24.640365 0-22.870309 12.744411-49.122743 37.443291-70.489235C140.802926 772.037486 174.688549 757.76 212.114286 757.76c37.425737 0 71.31136 14.277486 95.676708 35.354331C332.489874 814.480823 345.234286 840.733257 345.234286 863.603566z m29.257143 0C374.491429 930.44736 301.79328 950.857143 212.114286 950.857143S49.737143 930.44736 49.737143 863.603566C49.737143 796.762697 122.435291 728.502857 212.114286 728.502857s162.377143 68.25984 162.377143 135.100709z m500.297142 0c0 11.0592-2.884754 18.733349-7.176777 24.640365-4.514377 6.217143-11.881326 12.220709-23.309165 17.451886-23.590034 10.804663-59.090651 15.904183-102.634058 15.904183s-79.044023-5.09952-102.634057-15.904183c-11.42784-5.231177-18.794789-11.234743-23.309165-17.451886-4.292023-5.907017-7.176777-13.581166-7.176778-24.640365 0-22.870309 12.744411-49.122743 37.443292-70.489235C670.357211 772.037486 704.242834 757.76 741.668571 757.76c37.425737 0 71.31136 14.277486 95.676709 35.354331C862.04416 814.480823 874.788571 840.733257 874.788571 863.603566z m29.257143 0C904.045714 930.44736 831.347566 950.857143 741.668571 950.857143s-162.377143-20.409783-162.377142-87.253577C579.291429 796.762697 651.989577 728.502857 741.668571 728.502857s162.377143 68.25984 162.377143 135.100709z" fill="#A0776D" p-id="7044"></path><path d="M212.114286 930.377143c75.135269 0 136.045714-16.114834 136.045714-68.883017C348.16 808.723017 287.249554 754.834286 212.114286 754.834286S76.068571 808.723017 76.068571 861.494126C76.068571 914.262309 136.979017 930.377143 212.114286 930.377143z m529.554285 0c73.520274 0 133.12-16.114834 133.12-68.883017C874.788571 808.723017 815.188846 754.834286 741.668571 754.834286S608.548571 808.723017 608.548571 861.494126C608.548571 914.262309 668.148297 930.377143 741.668571 930.377143z" fill="#FFD4D4" p-id="7045"></path><path d="M258.74432 844.53376a8.777143 8.777143 0 1 0-17.124206-3.853166c-2.363977 10.497463-4.251063 27.11552-2.23232 43.379566 1.980709 15.989029 8.04864 33.83296 23.727543 43.54048a8.777143 8.777143 0 1 0 9.242332-14.926994c-8.897097-5.506194-13.800594-16.676571-15.550172-30.772663-1.714469-13.821074-0.087771-28.361874 1.936823-37.367223z m-98.075794 11.969097a8.777143 8.777143 0 0 0-16.9984-4.385646c-2.153326 8.347063-4.049189 21.711726-2.878903 35.380663 1.158583 13.49632 5.459383 28.882651 17.302674 39.245532a8.777143 8.777143 0 1 0 11.556572-13.212526c-6.878354-6.02112-10.377509-15.991954-11.369326-27.530971-0.974263-11.372251 0.643657-22.729874 2.387383-29.497052z m541.71648-9.043383a8.780069 8.780069 0 0 1 17.127131-3.853165c2.363977 10.497463 4.248137 27.11552 2.23232 43.379565-1.983634 15.989029-8.04864 33.83296-23.730468 43.54048a8.777143 8.777143 0 0 1-9.239406-14.926994c8.897097-5.506194 13.800594-16.676571 15.550171-30.772663 1.711543-13.821074 0.087771-28.361874-1.939748-37.367223z m98.075794 11.969097a8.777143 8.777143 0 1 1 16.9984-4.385645c2.156251 8.347063 4.052114 21.711726 2.878903 35.380663-1.155657 13.49632-5.459383 28.882651-17.299749 39.245531a8.777143 8.777143 0 1 1-11.559497-13.212526c6.88128-6.02112 10.380434-15.991954 11.369326-27.530971 0.974263-11.372251-0.640731-22.729874-2.387383-29.497052zM634.414811 579.329463c35.684937-5.757806 90.95168-14.268709 140.767818-21.097326 24.906606-3.414309 48.473234-6.407314 67.554742-8.426057 18.973257-2.00704 33.797851-3.083703 41.036069-2.568777a2.925714 2.925714 0 1 1-0.415451 5.8368c-6.623817-0.47104-20.898377 0.529554-40.003292 2.551223-18.996663 2.009966-42.496 4.994194-67.376274 8.405577-49.757623 6.816914-104.974629 15.321966-140.633234 21.07392a2.925714 2.925714 0 1 1-0.930378-5.77536z m-309.177782 14.631497c-34.429806-5.757806-87.745097-14.271634-135.805806-21.097326-24.028891-3.414309-46.764617-6.41024-65.176137-8.428983-18.300343-2.00704-32.621714-3.083703-39.625875-2.568777a2.925714 2.925714 0 0 0 0.433006 5.8368c6.366354-0.47104 20.117211 0.526629 38.555063 2.548297 18.323749 2.009966 40.989257 4.994194 64.991817 8.405578 47.999269 6.81984 101.264823 15.321966 135.662446 21.07392a2.925714 2.925714 0 1 0 0.965486-5.769509z m-105.068252 31.565531c-48.060709 6.825691-101.376 15.33952-135.805806 21.097326a2.925714 2.925714 0 1 0 0.965486 5.769509c34.397623-5.751954 87.663177-14.25408 135.665372-21.07392 23.999634-3.411383 46.665143-6.395611 64.988891-8.405577 18.437851-2.021669 32.188709-3.019337 38.555063-2.548298a2.925714 2.925714 0 1 0 0.43008-5.8368c-7.00416-0.514926-21.322606 0.561737-39.622949 2.568778-18.41152 2.018743-41.147246 5.014674-65.176137 8.428982z m663.862126 9.391543c-35.687863-5.757806-90.95168-14.268709-140.767817-21.097325-24.906606-3.414309-48.473234-6.407314-67.554743-8.426058-18.973257-2.00704-33.797851-3.083703-41.036069-2.568777a2.925714 2.925714 0 1 0 0.415452 5.8368c6.620891-0.47104 20.898377 0.529554 40.003291 2.551223 18.996663 2.009966 42.496 4.994194 67.376274 8.405577 49.757623 6.816914 104.974629 15.321966 140.633235 21.07392a2.925714 2.925714 0 1 0 0.930377-5.77536zM494.884571 547.050057c18.259383-0.272091 31.744-1.840274 31.744-10.69056 0-10.503314-18.993737-27.285211-42.422857-27.285211s-42.422857 16.781897-42.422857 27.285211c0 8.853211 13.490469 10.418469 31.758629 10.69056 0 0.295497 0.011703 0.59392 0.04096 0.892343 0.406674 4.274469 0.002926 11.331291-2.065555 19.022994-2.059703 7.65952-5.608594 15.351223-11.012388 21.369417-5.280914 5.880686-12.478171 10.357029-22.516297 11.697006-10.210743 1.363383-24.025966-0.435931-42.43456-8.461166a8.774217 8.774217 0 1 0-7.015863 16.091429c20.35712 8.873691 37.466697 11.679451 51.776366 9.76896 14.482286-1.933897 25.3952-8.619154 33.250742-17.369966 4.534857-5.049783 7.995977-10.716891 10.596938-16.457143 2.603886 5.629074 6.059154 11.111863 10.561828 15.99488 8.004754 8.68352 19.145874 15.228343 33.982172 17.214903 14.660754 1.963154 32.408137-0.585143 53.809737-9.034605a8.777143 8.777143 0 0 0-6.445349-16.328412c-19.5584 7.72096-34.207451 9.414949-45.03552 7.963794-10.6496-1.424823-18.089691-5.947977-23.405714-11.71456-11.103086-12.039314-13.70112-30.450834-12.788297-39.7312 0.032183-0.3072 0.043886-0.6144 0.043885-0.918674z" fill="#A0776D" p-id="7046"></path><path d="M227.304594 451.098331c19.192686-96.958171 155.241326-137.918171 187.087726-12.305554 30.090971 118.675749-201.774811 86.501669-187.087726 12.305554z m526.534949 0c-19.192686-96.958171-155.2384-137.918171-187.087726-12.305554-30.088046 118.675749 201.777737 86.501669 187.087726 12.305554z" fill="#FFFFFF" p-id="7047"></path><path d="M266.749074 464.079726c1.111771-95.261257 131.926309-128.965486 149.363566-14.848 12.741486 83.379931-145.527954 89.550263-149.363566 14.848z m451.920457 0.672914c-1.565257-95.331474-136.215406-129.641326-153.638034-15.517989-12.729783 83.379931 150.024777 90.25536 153.638034 15.517989z" fill="#FAA43C" p-id="7048"></path><path d="M373.82144 485.630537c-6.091337-0.315977-10.181486-16.890149-9.13408-37.019063 1.047406-20.128914 6.834469-36.191086 12.928731-35.875108 6.091337 0.318903 10.181486 16.893074 9.13408 37.021988-1.047406 20.128914-6.834469 36.191086-12.928731 35.872183z m231.99744 0.362789c6.094263-0.315977 10.184411-16.890149 9.13408-37.019063-1.047406-20.128914-6.834469-36.191086-12.925806-35.875109-6.094263 0.318903-10.184411 16.893074-9.137005 37.021989 1.047406 20.128914 6.837394 36.191086 12.928731 35.872183z" fill="#FFFFFF" p-id="7049"></path></svg>