<?xml version="1.0" standalone="no"?><!DOCTYPE svg PUBLIC "-//W3C//DTD SVG 1.1//EN" "http://www.w3.org/Graphics/SVG/1.1/DTD/svg11.dtd"><svg t="1762167551519" class="icon" viewBox="0 0 1024 1024" version="1.1" xmlns="http://www.w3.org/2000/svg" p-id="2498" xmlns:xlink="http://www.w3.org/1999/xlink" width="32" height="32"><path d="M591.72864 128.585143c-42.800274-11.044571-112.089966-9.8304-148.199131-5.491566-35.9424 4.318354-76.925806 9.505646-122.116389 42.405303-45.524114 33.145417-96.768 95.577234-149.182171 217.673143l-0.386195 0.895268-0.500297 0.83968c-51.188297 85.623954-52.774034 164.673829-35.711268 234.811978 18.118949 74.476983 48.356206 124.023954 80.857965 158.357211 32.589531 34.423954 68.069669 54.216411 97.803703 68.376869 98.435657 46.87872 317.097691 93.65504 485.378926-52.025052 54.33344-47.036709 89.608777-120.726674 100.662126-197.661257 11.062126-76.98432-2.425417-154.99264-42.706652-210.806491l-1.076663-1.49504-0.67584-1.714469c-46.296503-117.774629-99.20512-177.225143-145.952183-209.171017-39.17824-26.770286-74.591086-34.874514-102.391222-41.235017-5.585189-1.278537-10.866103-2.486857-15.804709-3.759543z m-151.689509-34.540983c37.651017-4.52608 111.101074-6.149851 159.000869 6.211291 4.192549 1.082514 8.92928 2.153326 14.1312 3.335315 27.826469 6.304914 69.093669 15.652571 113.257326 45.83424 52.481463 35.86048 108.27776 100.223269 156.010788 220.929463 44.985783 63.388526 58.590354 148.907154 46.85824 230.572617-11.834514 82.37056-49.748846 163.050057-110.474971 215.619291-181.110491 156.786103-414.055863 105.398857-517.108297 56.32-31.217371-14.865554-70.342949-36.51584-106.466743-74.675931-36.214491-38.250789-68.79232-92.432091-88.04352-171.555109-18.490514-76.012983-16.77312-162.892069 38.525806-255.8976 53.446949-124.225829 107.262537-191.61088 158.462537-228.890331 51.659337-37.610057 99.178789-43.394194 135.846765-47.803246z" fill="#5E3424" p-id="2499"></path><path d="M593.015954 125.852526c-44.040777-11.354697-113.350949-9.976686-149.164617-5.675886-70.515566 8.467017-171.894491 21.293349-274.824046 260.877166-51.946057 86.826423-53.584457 167.479589-36.29056 238.507154 36.29056 149.056366 122.005211 201.315474 181.198263 229.487177 97.83296 46.559817 317.118171 94.18752 486.76864-52.57216 111.73888-96.659749 142.148754-299.60192 58.505509-415.422171-91.457829-232.486034-211.669577-241.137371-266.193189-255.20128z" fill="#FFF8F0" p-id="2500"></path><path d="M769.462857 367.177143c0 68.672366-55.667566 124.342857-124.342857 124.342857-68.672366 0-124.342857-55.670491-124.342857-124.342857S576.447634 242.834286 645.12 242.834286c68.675291 0 124.342857 55.670491 124.342857 124.342857z" fill="#5E3424" opacity=".2" p-id="2501"></path><path d="M909.897143 608.548571H105.325714c-21.006629 0-38.034286 17.027657-38.034285 38.034286v242.834286c0 21.006629 17.027657 38.034286 38.034285 38.034286h804.571429c21.006629 0 38.034286-17.027657 38.034286-38.034286v-242.834286c0-21.006629-17.027657-38.034286-38.034286-38.034286zM105.325714 579.291429c-37.162423 0-67.291429 30.12608-67.291428 67.291428v242.834286c0 37.165349 30.129006 67.291429 67.291428 67.291428h804.571429c37.165349 0 67.291429-30.12608 67.291428-67.291428v-242.834286c0-37.165349-30.12608-67.291429-67.291428-67.291428H105.325714z" fill="#5E3424" p-id="2502"></path><path d="M64.365714 661.120731C64.365714 623.177143 83.382857 602.697143 127.882971 602.697143h759.456915c50.351543 0 63.517257 26.155886 63.517257 58.423588v210.832823C950.857143 915.748571 937.691429 933.302857 887.339886 930.377143H127.882971C92.803657 930.377143 61.44 927.451429 64.365714 871.953554v-210.832823z" fill="#FFF8F0" p-id="2503"></path><path d="M401.247086 624.724846c-18.888411-25.351314-4.371017-75.12064 5.248731-96.835292l44.538149-5.737325 45.881051-4.3008c6.120594 19.368229 21.670766 81.413851 3.93216 106.873417-18.446629 26.477714-75.986651 31.694263-99.600091 0z" fill="#FF8F8E" p-id="2504"></path><path d="M501.069531 511.584549l1.424823 4.502674c3.136366 9.926949 8.657189 30.65856 11.146972 52.24448 1.246354 10.795886 1.755429 21.989669 0.760685 32.241371-0.985966 10.172709-3.50208 19.962149-8.753737 27.498789-10.643749 15.272229-31.729371 23.628069-52.46976 24.315611-20.874971 0.693394-43.318126-6.304914-56.624274-24.1664-10.871954-14.593463-11.691154-35.36896-9.172114-54.061348 2.557074-18.976183 8.777143-37.384777 13.76256-48.64l1.334125-3.013486 47.908572-6.170331 50.682148-4.75136z m-49.388982 16.384l-41.120915 5.295542c-4.379794 10.596937-9.414949 26.387017-11.579977 42.460892-2.422491 17.96096-1.056183 34.745783 6.960274 45.50656 10.304366 13.829851 28.440869 20.0704 46.849463 19.458926 18.543177-0.6144 35.45088-8.107154 43.256686-19.309715 3.619109-5.193143 5.810469-12.709303 6.708663-21.937005 0.886491-9.145783 0.45056-19.450149-0.740206-29.769143-2.048-17.779566-6.278583-35.064686-9.3184-45.550446l-41.015588 3.844389z" fill="#DF413F" p-id="2505"></path><path d="M449.097143 567.117531c0-20.48-3.899977-37.057097-13.165714-36.571428 10.564754-0.789943 24.271726-2.644846 32.762148-3.996526A17.767863 17.767863 0 0 1 473.965714 525.165714c5.36576-0.535406 1.916343 0.242834-5.272137 1.383863-11.758446 5.093669-19.596434 22.65088-19.596434 40.567954z" fill="#D74D4B" p-id="2506"></path><path d="M512 485.984549c38.780343 0 70.217143-35.597166 70.217143-60.407223 0-24.807131-31.4368-44.918491-70.217143-44.918492-38.777417 0-70.217143 20.11136-70.217143 44.918492 0 24.810057 31.439726 60.407223 70.217143 60.407223z m158.831177 8.876617a11.702857 11.702857 0 1 0-22.162286-7.522012c-4.174994 12.299703-16.129463 21.723429-32.762148 26.790766-16.530286 5.035154-35.210971 4.903497-48.88576 0.345234-39.105097-13.034057-78.336-17.197349-127.253943 0.067292-21.047589 7.428389-36.738194 3.42016-47.987566-3.560595-11.79648-7.320137-19.186834-18.26816-21.875565-24.508708a11.699931 11.699931 0 0 0-15.374629-6.120594 11.702857 11.702857 0 0 0-6.12352 15.374628c4.3008 9.985463 14.60224 24.94464 31.030126 35.140754 16.974994 10.535497 40.044251 15.655497 68.119405 5.746103 43.025554-15.184457 76.805851-11.688229 112.063635 0.067292 18.777234 6.258103 42.457966 6.126446 63.107657-0.160915 20.54144-6.258103 40.576731-19.482331 48.104594-41.659245z" fill="#000000" p-id="2507"></path><path d="M297.624137 436.352731c32.855771 0 59.491474-13.016503 59.491474-29.069897 0-16.05632-26.635703-29.069897-59.491474-29.069897s-59.491474 13.013577-59.491474 29.069897c0 16.053394 26.635703 29.069897 59.491474 29.069897z m429.960046 0c-32.855771 0-59.491474-13.016503-59.491474-29.069897 0-16.05632 26.635703-29.069897 59.491474-29.069897 32.858697 0 59.4944 13.013577 59.4944 29.069897 0 16.053394-26.635703 29.069897-59.4944 29.069897z" fill="#F79A99" p-id="2508"></path><path d="M492.652251 407.268206c0.816274 2.481006-3.408457 6.10304-9.438354 8.086674-6.029897 1.983634-11.577051 1.579886-12.396251-0.90112-0.816274-2.483931 3.408457-6.10304 9.438354-8.0896 6.026971-1.983634 11.577051-1.579886 12.396251 0.904046z" fill="#FFFFFF" opacity=".6" p-id="2509"></path><path d="M162.555611 162.321554c44.529371-26.144183 100.115017-40.717166 159.281738-26.141257l-2.799909 11.360549 2.799909-11.360549c2.282057 0.561737 5.20192 1.7408 7.662445 4.3008a14.511543 14.511543 0 0 1 3.978972 8.943909c0.397897 4.871314-1.594514 9.335954-2.776503 11.790628-1.676434 3.4816-4.499749 8.13056-7.463497 13.001875-1.55648 2.56-3.148069 5.178514-4.634332 7.726811-9.438354 16.196754-19.903634 37.80608-20.313234 64.336457 3.777097 84.760869-23.493486 149.018331-58.473326 189.934446-17.457737 20.41856-36.975177 35.181714-55.688045 43.634103-18.376411 8.300251-37.574949 11.170377-53.18656 4.926903-26.392869-10.558903-55.699749-39.54688-71.799955-78.76608-16.345966-39.81312-19.39456-90.80832 7.80288-145.504549 16.969143-34.131383 51.26144-72.148114 95.612343-98.184046z m690.70848 5.851429c-44.529371-26.144183-100.115017-40.717166-159.278811-26.141257l2.796983 11.360548-2.796983-11.360548c-2.282057 0.561737-5.204846 1.7408-7.662446 4.3008a14.49984 14.49984 0 0 0-3.981897 8.943908c-0.397897 4.871314 1.59744 9.335954 2.779429 11.790629 1.673509 3.4816 4.499749 8.13056 7.463497 13.0048 1.553554 2.557074 3.148069 5.178514 4.631406 7.723886 9.44128 16.196754 19.90656 37.80608 20.313234 64.336457-3.777097 84.760869 23.493486 149.018331 58.473326 189.934445 17.457737 20.41856 36.978103 35.181714 55.690971 43.634103 18.376411 8.300251 37.574949 11.170377 53.183634 4.926903 26.395794-10.558903 55.702674-39.54688 71.80288-78.76608 16.34304-39.81312 19.391634-90.80832-7.80288-145.504548-16.972069-34.131383-51.264366-72.148114-95.612343-98.184046z" fill="#5E3424" p-id="2510"></path><path d="M381.805714 392.045714c21.814126 0 39.497143-17.683017 39.497143-39.497143s-17.683017-39.497143-39.497143-39.497142c-21.8112 0-39.497143 17.683017-39.497143 39.497142s17.685943 39.497143 39.497143 39.497143z m236.982857 0c21.814126 0 39.497143-17.683017 39.497143-39.497143s-17.683017-39.497143-39.497143-39.497142c-21.8112 0-39.497143 17.683017-39.497142 39.497142s17.685943 39.497143 39.497142 39.497143z" fill="#000000" p-id="2511"></path><path d="M390.582857 359.862857a13.165714 13.165714 0 1 0 0-26.331428 13.165714 13.165714 0 0 0 0 26.331428z m219.428572 0a13.165714 13.165714 0 1 0 0-26.331428 13.165714 13.165714 0 0 0 0 26.331428z" fill="#FFFFFF" p-id="2512"></path><path d="M225.28 728.502857a11.702857 11.702857 0 0 1 11.702857-11.702857h78.994286a11.702857 11.702857 0 0 1 11.702857 11.702857v78.994286a11.702857 11.702857 0 0 1-11.702857 11.702857H236.982857a11.702857 11.702857 0 0 1-11.702857-11.702857v-78.994286z m231.131429 0a11.702857 11.702857 0 0 1 11.702857-11.702857h78.994285a11.702857 11.702857 0 0 1 11.702858 11.702857v78.994286a11.702857 11.702857 0 0 1-11.702858 11.702857h-78.994285a11.702857 11.702857 0 0 1-11.702857-11.702857v-78.994286z m242.834285-11.702857a11.702857 11.702857 0 0 0-11.702857 11.702857v78.994286a11.702857 11.702857 0 0 0 11.702857 11.702857h78.994286a11.702857 11.702857 0 0 0 11.702857-11.702857v-78.994286a11.702857 11.702857 0 0 0-11.702857-11.702857h-78.994286z" fill="#5E3424" p-id="2513"></path></svg>