<?xml version="1.0" standalone="no"?><!DOCTYPE svg PUBLIC "-//W3C//DTD SVG 1.1//EN" "http://www.w3.org/Graphics/SVG/1.1/DTD/svg11.dtd"><svg t="1762168637677" class="icon" viewBox="0 0 1024 1024" version="1.1" xmlns="http://www.w3.org/2000/svg" p-id="4882" xmlns:xlink="http://www.w3.org/1999/xlink" width="32" height="32"><path d="M145.211977 46.10048c4.768914-6.606263 13.320777-15.108389 25.78432-13.788891 10.494537 1.111771 27.390537 6.035749 46.650514 12.603977 19.766126 6.73792 43.476114 15.72864 68.312503 25.755063 44.377234 17.911223 92.865097 39.330377 129.536 57.481508A550.888594 550.888594 0 0 1 510.537143 119.954286c35.579611 0 70.231771 3.370423 103.529326 9.754331 35.98336-17.846857 82.701166-38.636983 125.551177-56.09472 24.611109-10.026423 48.104594-19.017143 67.692251-25.760914 19.075657-6.562377 35.842926-11.498057 46.273097-12.612754 12.498651-1.337051 21.024183 7.267474 25.719955 13.838628 5.117074 7.159223 9.371063 16.828709 13.039908 27.4432 7.422537 21.480594 13.80352 50.936686 19.21024 82.970332 10.415543 61.703314 17.630354 135.55712 21.275794 187.137462C961.281463 397.683566 977.188571 454.732069 977.188571 514.925714c0 218.135406-208.928183 394.971429-466.651428 394.971429C252.810971 909.897143 43.885714 733.06112 43.885714 514.925714c0-62.355749 17.071543-121.335223 47.475566-173.7728 3.733211-51.44576 10.948023-123.904 21.290423-184.609645 5.456457-32.036571 11.89888-61.498514 19.39456-82.98496 3.703954-10.620343 7.998903-20.29568 13.165714-27.457829zM904.145189 355.7376a14.587611 14.587611 0 0 0 5.44768 9.745554C934.288823 411.425646 947.931429 462.122423 947.931429 514.925714c0 197.593966-191.063771 365.714286-437.394286 365.714286S73.142857 712.51968 73.142857 514.925714c0-53.394286 13.949806-104.635246 39.175314-150.987337a14.616869 14.616869 0 0 0 7.603932-11.860846l0.108251-1.582811c57.177234-94.684891 162.301074-166.920777 291.0208-191.844937 1.20832 0.611474 2.39616 1.217097 3.569372 1.819794a14.628571 14.628571 0 0 0 19.365303-5.719771A527.269303 527.269303 0 0 1 510.537143 149.211429c27.899611 0 55.088274 2.156251 81.369966 6.26688a14.628571 14.628571 0 0 0 20.447817 7.890651c1.930971-1.000594 3.914606-2.018743 5.9392-3.045669 127.294903 26.863909 230.616503 100.20864 285.851063 195.411383z m-4.815726-59.321783c-3.967269-42.387749-9.558309-90.190994-16.623909-132.052114-5.336503-31.612343-11.401509-59.143314-18.013623-78.280412-3.349943-9.692891-6.509714-16.237714-9.189668-19.98848a20.772571 20.772571 0 0 0-1.114697-1.439451c-7.285029 1.211246-20.158171 4.880091-37.557395 10.866103-18.911817 6.506789-41.869897 15.289783-66.173805 25.1904a2127.304411 2127.304411 0 0 0-91.323246 39.748754c99.017874 28.174629 183.1936 83.695909 239.996343 155.9552zM275.008366 97.800777c31.319771 12.639086 64.588069 27.004343 94.076343 40.626469C268.662491 165.428663 182.971246 220.417463 124.802194 292.571429c3.999451-42.153691 9.610971-89.564891 16.6912-131.118812 5.383314-31.606491 11.503909-59.131611 18.177463-78.262857 3.3792-9.684114 6.565303-16.226011 9.268663-19.973851 0.476891-0.661211 0.871863-1.149806 1.18784-1.509669 7.358171 1.193691 20.41856 4.877166 38.078171 10.898286 19.093211 6.509714 42.27072 15.289783 66.802835 25.1904zM171.051886 60.8256c0 0.008777-0.058514 0.058514-0.181395 0.128731 0.12288-0.1024 0.181394-0.134583 0.181395-0.128731z m682.370194 2.884754a0.672914 0.672914 0 0 0 0.187246 0.137509c-0.125806-0.108251-0.187246-0.146286-0.187246-0.137509z" fill="#000000" p-id="4883"></path><path d="M172.617143 58.514286c32.612937 3.528411 166.578469 55.591497 242.105783 93.666743A520.54016 520.54016 0 0 1 510.537143 143.36c37.13024 0 73.186743 3.876571 107.631177 11.18208C692.659931 116.618971 821.283109 64.994743 854.308571 61.44c33.563794-3.613257 58.344594 192.763611 55.717303 297.009737C936.228571 406.007223 950.857143 459.024091 950.857143 514.925714c0 205.2096-197.137554 371.565714-440.32 371.565715S70.217143 720.135314 70.217143 514.925714c0-58.394331 15.962697-113.64352 44.409417-162.810148C121.013394 243.483794 139.541943 54.936137 172.614217 58.514286z" fill="#C9CDCC" p-id="4884"></path><path d="M845.739154 73.142857c-50.395429 29.734034-153.646811 95.890286-163.503543 122.648869-8.034011 21.817051 74.4448 69.245806 137.447132 105.474925 33.593051 19.318491 61.650651 35.45088 67.490377 42.817829 16.799451 21.185097-10.07616-257.562331-41.433966-270.941623zM178.260846 76.068571c50.395429 28.7744 153.646811 92.79488 163.503543 118.693303 8.034011 21.111954-74.4448 67.01056-137.447132 102.07232-33.593051 18.695314-61.650651 34.306926-67.490377 41.436892-16.799451 20.50048 10.07616-249.253303 41.433966-262.202515z" fill="#FFFFFF" opacity=".6" p-id="4885"></path><path d="M351.363657 574.867749c-97.715931 39.078766-211.997257-6.977829-272.369371-34.889143C78.994286 646.044526 210.967406 877.714286 490.355566 877.714286 834.328869 877.714286 935.880411 660.93056 950.857143 539.978606c-32.291109 30.702446-150.223726 75.784777-248.501394 34.889143C581.614446 524.627383 591.386331 468.114286 531.017143 468.114286s-57.50784 57.908663-179.653486 106.753463z" fill="#FFFFFF" p-id="4886"></path><path d="M373.028571 538.331429c33.124937 0 59.977143-27.507566 59.977143-61.44s-26.852206-61.44-59.977143-61.44-59.977143 27.507566-59.977142 61.44 26.852206 61.44 59.977142 61.44z m315.977143 0c33.124937 0 59.977143-27.507566 59.977143-61.44s-26.852206-61.44-59.977143-61.44-59.977143 27.507566-59.977143 61.44 26.852206 61.44 59.977143 61.44z" fill="#03FFFC" p-id="4887"></path><path d="M538.506971 535.353051c18.393966-0.263314 32.007314-1.805166 32.007315-10.696411 0-10.503314-18.993737-27.285211-42.422857-27.285211s-42.422857 16.781897-42.422858 27.285211c0 8.894171 13.616274 10.433097 32.013166 10.696411 0.6144 10.061531-0.196023 23.867977-7.211886 33.104458-3.487451 4.593371-8.803474 8.452389-17.484068 10.052754-8.938057 1.647177-21.746834 0.939154-39.883337-4.549486a8.777143 8.777143 0 1 0-5.084892 16.799452c19.719314 5.971383 35.518171 7.340617 48.14848 5.014674 12.884846-2.37568 22.092069-8.543086 28.285806-16.699977 1.421897-1.872457 2.668251-3.826834 3.756617-5.833875 1.149806 2.050926 2.466377 4.049189 3.97312 5.95968 13.320777 16.896 38.069394 23.467154 78.824594 11.585829a8.777143 8.777143 0 1 0-4.912274-16.852114c-37.870446 11.03872-53.341623 3.004709-60.126354-5.602743-7.264549-9.210149-8.098377-22.952229-7.460572-32.978652z" fill="#634011" p-id="4888"></path><path d="M684.617143 520.777143c11.310811 0 20.48-20.304457 20.48-45.348572 0-25.044114-9.169189-45.348571-20.48-45.348571s-20.48 20.304457-20.48 45.348571c0 25.044114 9.169189 45.348571 20.48 45.348572z m-304.274286 2.925714c11.310811 0 20.48-20.304457 20.48-45.348571 0-25.044114-9.169189-45.348571-20.48-45.348572s-20.48 20.304457-20.48 45.348572c0 25.044114 9.169189 45.348571 20.48 45.348571z" fill="#2F2523" p-id="4889"></path><path d="M532.965669 143.6672c7.135817 31.053531 3.662994 85.910674-10.725669 94.778514-16.448366 10.134674-26.278766-93.330286-21.141211-94.78144 2.864274-0.804571 12.331886-0.512 21.000777-0.242834 4.049189 0.12288 7.922834 0.24576 10.866103 0.24576z m-66.712138 122.300709c14.567131-20.939337 6.217143-90.17344-1.06496-121.145052-9.444206 0-26.433829 3.209509-30.72 4.388572-5.245806 1.442377 13.57824 142.92992 31.78496 116.75648z m97.344366 2.925714c-14.567131-20.939337-5.336503-91.636297 1.948526-122.607909 9.44128 0 26.144183 3.15392 30.427428 4.330057 5.245806 1.445303-14.169234 144.451291-32.375954 118.277852zM197.485714 389.12c5.052709-20.21376-64.365714-0.49152-108.251428 19.014217l-14.628572 55.588572C134.094263 439.342811 193.097143 406.674286 197.485714 389.12z m736.077532 24.581851c-43.885714-19.502811-93.084526-36.018469-88.031817-15.804708 4.388571 17.554286 41.448594 45.837166 100.937142 70.217143l-12.905325-54.412435zM157.988571 478.35136c5.052709-20.21376-42.422857-4.87424-86.308571 14.631497v40.96c59.488549-24.379977 81.92-38.037211 86.308571-55.591497zM949.394286 497.371429c-43.885714-19.505737-84.046994-33.379474-78.994286-13.165715 4.388571 17.554286 19.505737 31.205669 78.994286 55.588572V497.371429z" fill="#AFB2B1" p-id="4890"></path><path d="M924.525714 646.582857H96.548571c-21.006629 0-38.034286 17.027657-38.034285 38.034286v242.834286c0 21.006629 17.027657 38.034286 38.034285 38.034285h827.977143c21.006629 0 38.034286-17.027657 38.034286-38.034285v-242.834286c0-21.006629-17.027657-38.034286-38.034286-38.034286zM96.548571 617.325714c-37.165349 0-67.291429 30.12608-67.291428 67.291429v242.834286c0 37.165349 30.12608 67.291429 67.291428 67.291428h827.977143c37.165349 0 67.291429-30.12608 67.291429-67.291428v-242.834286c0-37.165349-30.12608-67.291429-67.291429-67.291429H96.548571z" fill="#000000" p-id="4891"></path><path d="M49.737143 697.273783C49.737143 664.429714 78.491063 637.805714 113.959497 637.805714H904.192c35.468434 0 64.222354 26.624 64.222354 59.468069v214.595291C968.411429 944.713143 939.657509 971.337143 904.189074 971.337143H113.959497C78.491063 971.337143 49.737143 944.713143 49.737143 911.869074v-214.595291z" fill="#FFFFFF" p-id="4892"></path><path d="M234.057143 806.034286c0-28.277029 22.922971-51.2 51.2-51.2s51.2 22.922971 51.2 51.2-22.922971 51.2-51.2 51.2S234.057143 834.311314 234.057143 806.034286z m231.131428 0c0-28.277029 22.922971-51.2 51.2-51.2s51.2 22.922971 51.2 51.2-22.922971 51.2-51.2 51.2-51.2-22.922971-51.2-51.2z m282.331429-51.2c-28.277029 0-51.2 22.922971-51.2 51.2s22.922971 51.2 51.2 51.2 51.2-22.922971 51.2-51.2-22.922971-51.2-51.2-51.2zM909.897143 640.175543c0 5.599817-1.758354 9.675337-5.453532 13.534354-4.221806 4.409051-11.606309 9.075566-23.379382 13.162789C857.319131 675.120274 822.468023 678.765714 781.165714 678.765714c-41.302309 0-76.153417-3.64544-99.898514-11.893028-11.773074-4.087223-19.157577-8.753737-23.379383-13.162789-3.695177-3.859017-5.453531-7.934537-5.453531-13.534354 0-12.475246 9.608046-30.240183 33.993874-46.235063C709.942126 578.513189 743.467886 567.588571 781.165714 567.588571c37.697829 0 71.223589 10.924617 94.737555 26.351909C900.289097 609.93536 909.897143 627.700297 909.897143 640.175543z m23.405714 0c0 47.49312-68.113554 61.995886-152.137143 61.995886s-152.137143-14.502766-152.137143-61.995886S697.142126 544.182857 781.165714 544.182857s152.137143 48.499566 152.137143 95.992686z m-822.125714 8.777143c0 8.66304 4.909349 18.320823 29.198628 26.676663C164.407589 683.897417 199.653669 687.542857 241.371429 687.542857c41.714834 0 76.960914-3.64544 100.998582-11.913508 24.286354-8.35584 29.195703-18.013623 29.195703-26.676663 0-12.366994-9.643154-30.134857-34.336183-46.179475C313.443474 587.316663 279.519817 576.365714 241.371429 576.365714c-38.148389 0-72.06912 10.950949-95.858103 26.407497C120.820297 618.817829 111.177143 636.585691 111.177143 648.952686z m-23.405714 0C87.771429 696.445806 156.540343 710.948571 241.371429 710.948571s153.6-14.502766 153.6-61.995885S326.202514 552.96 241.371429 552.96 87.771429 601.459566 87.771429 648.952686z" fill="#000000" p-id="4893"></path><path d="M781.165714 681.691429c72.712777 0 131.657143-3.578149 131.657143-44.034926S853.878491 564.662857 781.165714 564.662857s-131.657143 32.536869-131.657143 72.993646C649.508571 678.11328 708.452937 681.691429 781.165714 681.691429z m-539.794285 11.702857c-71.90528 0-130.194286-6.503863-130.194286-46.96064S169.466149 573.44 241.371429 573.44s130.194286 32.536869 130.194285 72.993646C371.565714 686.890423 313.276709 693.394286 241.371429 693.394286z" fill="#FFFFFF" p-id="4894"></path><path d="M749.196434 607.550903a8.780069 8.780069 0 0 1 17.127132-3.853166c2.363977 10.497463 4.248137 27.11552 2.23232 43.379566-1.983634 15.989029-8.04864 33.83296-23.730469 43.54048a8.777143 8.777143 0 0 1-9.239406-14.926994c8.897097-5.506194 13.800594-16.676571 15.550172-30.772663 1.711543-13.824 0.087771-28.361874-1.939749-37.367223z m98.075795 11.969097a8.777143 8.777143 0 0 1 16.9984-4.388571c2.156251 8.349989 4.052114 21.714651 2.878902 35.383588-1.155657 13.49632-5.459383 28.882651-17.299748 39.245532a8.777143 8.777143 0 0 1-11.559497-13.212526c6.88128-6.02112 10.380434-15.991954 11.369325-27.533897 0.974263-11.369326-0.640731-22.726949-2.387382-29.494126z m-550.493623-0.26624a8.777143 8.777143 0 1 0-17.124206-3.853166c-2.363977 10.497463-4.251063 27.11552-2.23232 43.379566 1.980709 15.989029 8.04864 33.83296 23.727543 43.54048a8.777143 8.777143 0 0 0 9.242331-14.926994c-8.897097-5.506194-13.800594-16.676571-15.550171-30.772663-1.714469-13.824-0.087771-28.361874 1.936823-37.367223z m-98.075795 11.969097a8.777143 8.777143 0 0 0-16.9984-4.388571c-2.153326 8.349989-4.049189 21.714651-2.878902 35.383588 1.158583 13.49632 5.459383 28.882651 17.302674 39.245532a8.777143 8.777143 0 0 0 11.556571-13.212526c-6.88128-6.02112-10.377509-15.991954-11.369325-27.533897-0.974263-11.369326 0.643657-22.726949 2.387382-29.494126z" fill="#000000" p-id="4895"></path></svg>