<?xml version="1.0" standalone="no"?><!DOCTYPE svg PUBLIC "-//W3C//DTD SVG 1.1//EN" "http://www.w3.org/Graphics/SVG/1.1/DTD/svg11.dtd"><svg t="1762127802905" class="icon" viewBox="0 0 1024 1024" version="1.1" xmlns="http://www.w3.org/2000/svg" p-id="1781" xmlns:xlink="http://www.w3.org/1999/xlink" width="32" height="32"><path d="M924.525714 523.702857H96.548571c-21.006629 0-38.034286 17.027657-38.034285 38.034286v365.714286c0 21.006629 17.027657 38.034286 38.034285 38.034285h827.977143c21.006629 0 38.034286-17.027657 38.034286-38.034285V561.737143c0-21.006629-17.027657-38.034286-38.034286-38.034286zM96.548571 494.445714c-37.165349 0-67.291429 30.12608-67.291428 67.291429v365.714286c0 37.165349 30.12608 67.291429 67.291428 67.291428h827.977143c37.165349 0 67.291429-30.12608 67.291429-67.291428V561.737143c0-37.165349-30.12608-67.291429-67.291429-67.291429H96.548571z" fill="#000000" p-id="1782"></path><path d="M55.588571 580.985417C54.125714 528.091429 84.067474 520.777143 119.199451 520.777143h782.675383c35.131977 0 63.61088 8.777143 63.61088 60.208274v327.217737C965.485714 962.56 937.006811 968.411429 901.874834 968.411429H119.199451C62.902857 969.874286 55.588571 941.453897 55.588571 908.203154V580.985417z" fill="#FFFFFF" p-id="1783"></path><path d="M228.205714 744.594286c0-28.277029 22.922971-51.2 51.2-51.2s51.2 22.922971 51.2 51.2-22.922971 51.2-51.2 51.2S228.205714 772.871314 228.205714 744.594286z m231.131429 0c0-28.277029 22.922971-51.2 51.2-51.2s51.2 22.922971 51.2 51.2-22.922971 51.2-51.2 51.2-51.2-22.922971-51.2-51.2z m282.331428-51.2c-28.277029 0-51.2 22.922971-51.2 51.2s22.922971 51.2 51.2 51.2 51.2-22.922971 51.2-51.2-22.922971-51.2-51.2-51.2z" fill="#000000" p-id="1784"></path><path d="M95.340251 459.129417c40.945371 37.337966 137.131154 29.175223 218.553783 12.504503L330.605714 340.339566c0-15.629166-33.004983-83.078583-106.703725-76.586423-88.707657 7.814583-205.698194 125.042103-128.561738 195.376274z" fill="#B5D387" p-id="1785"></path><path d="M305.924389 295.56736c-17.086171-17.437257-42.876343-32.039497-78.894812-28.89728-44.529371 3.882423-97.824183 35.559131-129.688137 75.720411-15.828114 19.944594-25.526857 40.945371-26.945829 60.500846-1.375086 18.98496 4.944457 37.627611 23.341349 54.233966 18.967406 17.12128 52.545829 25.00608 94.875063 25.582446 39.1168 0.535406 83.321417-5.178514 124.94848-13.247635l17.013028-132.309577c-0.219429-1.971931-1.582811-7.381577-5.567634-15.204937-4.13696-8.118857-10.468206-17.586469-19.081508-26.37824z m39.936 15.754971c4.862537 9.546606 8.15104 19.277531 8.15104 26.322652v0.748983l-19.379932 150.71232-8.21248 1.664731c-44.763429 9.075566-94.070491 15.942217-138.125897 15.33952-43.429303-0.590994-84.579474-8.446537-110.240914-31.612343-23.636846-21.337234-32.905509-46.963566-30.997943-73.29792 1.866606-25.769691 14.324297-51.144411 31.9488-73.35936 35.04128-44.160731 93.842286-79.942217 145.993143-84.488777 44.304091-3.861943 76.665417 14.420846 97.645714 35.834149 10.418469 10.632046 18.098469 22.083291 23.218469 32.136045zM918.841051 455.943314c2.337646 5.374537 6.047451 11.641417 11.126492 16.790675 6.775954 6.869577 15.471177 11.351771 26.91072 10.082011 7.764846-0.863086 14.792411-8.548937 19.371154-26.103223 4.28032-16.401554 4.8128-36.100389 3.894126-49.216366l11.6736-0.8192-11.6736 0.8192c-0.187246-2.674103-0.57344-4.277394-0.874789-5.175588-1.983634 0.444709-5.146331 1.808091-9.470537 4.599223-4.283246 2.761874-9.028754 6.47168-13.984914 10.798811-9.903543 8.654263-19.912411 19.122469-27.691886 27.712366a562.603154 562.603154 0 0 0-9.280366 10.512091z m76.413806-71.299657c5.634926 5.459383 7.685851 13.358811 8.235886 21.214354 1.029851 14.675383 0.538331 37.106834-4.593372 56.764709-4.830354 18.505143-15.599909 40.807863-39.432777 43.455634-20.158171 2.241097-35.600091-6.199589-46.16192-16.907703-10.292663-10.438949-16.410331-23.38816-19.034697-32.41984l-1.928046-6.644297 4.745509-4.745508-0.005851 0.002925c-0.002926-0.002926 0.216503-0.248686 0.851382-0.991817l0.494446-0.579291a597.492297 597.492297 0 0 1 12.346514-14.075612c8.031086-8.864914 18.7392-20.099657 29.646263-29.625782 5.450606-4.760137 11.129417-9.254034 16.694126-12.843886 5.412571-3.487451 11.4688-6.620891 17.580617-7.881874 6.383909-1.319497 14.303817-0.784091 20.56192 5.277988z" fill="#000000" p-id="1786"></path><path d="M985.617554 411.539749c-3.203657-45.562149-70.81984 37.434514-72.794697 39.406445 3.701029 12.723931 17.767863 37.434514 44.418194 34.479543 26.650331-2.954971 30.02368-50.489051 28.376503-73.885988z" fill="#B5D387" p-id="1787"></path><path d="M475.633371 107.285943c-94.292846 38.941257-170.340937 117.438171-181.546422 234.838308-2.58048 27.062857-2.4576 58.792229 5.12 85.357715 7.366949 25.828206 21.149989 45.029669 44.883382 52.335177h591.945143c-2.849646-131.042743-30.72-293.08928-174.896274-368.575634-79.281006-41.510034-190.785829-43.06944-285.505829-3.955566z m-8.932205-21.632732c100.08576-41.331566 218.945829-40.357303 305.292434 4.850835C933.522286 175.074743 958.171429 358.288823 959.634286 491.391269l0.128731 11.831588H340.7872l-1.559406-0.438857c-35.316297-9.959131-53.736594-38.063543-62.528365-68.883017-8.736183-30.6176-8.613303-65.685211-5.909943-94.000274 12.197303-127.809829 95.398766-212.740389 195.91168-254.247498z" fill="#000000" p-id="1788"></path><path d="M291.172937 339.31264c-5.146331 53.850697 0 129.910491 58.38848 146.355931H939.154286c-1.424823-129.363383-25.635109-300.938971-176.593189-379.871817-161.271223-84.324937-448.599771-4.929829-471.38816 233.515886z" fill="#856B50" p-id="1789"></path><path d="M146.537326 357.440366a11.702857 11.702857 0 0 1 13.873737-9.025829l76.068571 16.091429a11.702857 11.702857 0 1 1-4.844983 22.89664l-76.068571-16.091429a11.702857 11.702857 0 0 1-9.028754-13.870811zM789.972114 122.640091a11.699931 11.699931 0 1 0-20.538514-11.22304l-74.029349 135.489829-150.141805-6.764251-100.57728-113.327543a11.702857 11.702857 0 0 0-17.507475 15.535543l102.508252 115.498422-95.123749 91.726995-144.969143 59.435885a11.702857 11.702857 0 1 0 8.879543 21.656138l121.563429-49.839543 53.57568 114.199405c2.74432 5.851429 9.713371 8.370469 15.5648 5.623223 5.851429-2.74432 8.370469-9.713371 5.623223-15.5648l-52.030903-110.907977 113.2544-109.211063 135.799954 5.433052L784.091429 391.165074l-63.751315 92.238995a11.699931 11.699931 0 1 0 19.254126 13.306148l65.951451-95.419246 123.871818-21.11488a11.702857 11.702857 0 1 0-3.93216-23.072182l-122.063726 20.804754-89.164069-116.69504 75.71456-138.573532z" fill="#000000" p-id="1790"></path></svg>