<?xml version="1.0" standalone="no"?><!DOCTYPE svg PUBLIC "-//W3C//DTD SVG 1.1//EN" "http://www.w3.org/Graphics/SVG/1.1/DTD/svg11.dtd"><svg t="1762167561323" class="icon" viewBox="0 0 1024 1024" version="1.1" xmlns="http://www.w3.org/2000/svg" p-id="3045" xmlns:xlink="http://www.w3.org/1999/xlink" width="32" height="32"><path d="M243.770514 950.506057s156.768549-7.835063 260.953235-8.788846c115.758811-1.059109 300.163657 8.788846 300.163657 8.788846l191.318308 21.632732s-298.896823 17.712274-491.481965 17.577691C315.830857 989.584823 40.96 972.138789 40.96 972.138789l202.810514-21.632732z" fill="#000000" opacity=".5" p-id="3046"></path><path d="M127.950263 342.250057c0.994743 38.967589 1.971931 77.326629 0.637806 110.559817l-0.152138 3.791726-1.974857 3.241691c-50.70848 83.116617-58.953143 152.014263-50.509531 218.545006 7.735589 60.977737 42.10688 106.712503 83.605211 140.946286 41.609509 34.321554 89.506377 56.314149 122.18368 69.626148 52.905691 21.556663 144.661943 43.06944 246.310035 41.937189 101.583726-1.129326 211.654949-24.848091 302.606628-92.20096 117.563977-87.057554 127.751314-269.177417 44.245577-377.545874l-3.294354-4.274469 0.272091-5.389166c8.800549-174.641737 5.77536-276.714057-9.654857-331.395657-7.65952-27.147703-17.513326-39.385966-27.3408-44.56448-9.845029-5.190217-23.750949-5.46816-44.862903 1.304869-34.971063 11.217189-65.354606 37.35552-91.62752 68.490971-23.584183 27.952274-42.86464 58.689829-58.786377 84.0704-1.778834 2.837943-3.516709 5.605669-5.213623 8.300252l-5.880685 9.327177-10.58816-3.086629c-22.270537-6.49216-74.795886-11.983726-128.631955-12.952137-26.641554-0.482743-53.013943 0.157989-75.436617 2.229394-22.95808 2.118217-40.029623 5.602743-49.248548 9.924023l-14.303817 6.705737-5.588115-14.774857C291.404069 94.131931 222.430354 71.957943 207.403886 70.108891c-14.101943-1.732023-24.827611 0.330606-33.265372 4.660663-8.4992 4.359314-15.822263 11.609234-22.07744 22.106697-12.829257 21.542034-19.8656 54.55872-23.10144 95.234926-3.206583 40.26368-2.574629 85.922377-1.477485 131.52256 0.152137 6.208366 0.310126 12.419657 0.468114 18.61632zM160.779703 48.739474c14.502766-7.443017 31.305143-9.991314 50.193554-7.668297 27.969829 3.437714 100.518766 33.818331 155.884983 170.31168 12.644937-3.510857 28.045897-5.804617 44.307017-7.305508 23.809463-2.200137 51.311177-2.840869 78.654903-2.349349 47.545783 0.857234 96.437394 5.190217 125.437074 11.421989 15.760823-25.134811 35.997989-57.326446 60.778789-86.69184 27.776731-32.920137 62.490331-63.833234 105.050697-77.484618 23.81824-7.641966 47.191771-10.003017 67.44064 0.672915 20.266423 10.681783 33.32096 32.258926 41.855269 62.499108 16.787749 59.479771 19.417966 164.913737 10.983131 335.509212 88.505783 119.925029 77.674789 317.565806-53.297737 414.55616-97.432137 72.15104-214.17984 96.768-319.6928 97.944137-105.448594 1.173211-201.075566-21.038811-257.673509-44.099292-33.572571-13.677714-84.719909-36.998583-129.76128-74.152228-45.152549-37.247269-85.047589-89.152366-94.014903-159.831772-9.1136-71.837989-0.029257-146.502217 52.569235-234.180022 1.079589-31.316846 0.166766-67.203657-0.789943-104.769829-0.157989-6.220069-0.318903-12.484023-0.468114-18.783086-1.097143-45.518263-1.784686-92.584229 1.55648-134.550674 3.308983-41.550994 10.69056-80.272823 27.133074-107.882789 8.385097-14.075611 19.409189-25.755063 33.85344-33.165897z" fill="#3C3936" p-id="3047"></path><path d="M209.188571 67.291429c-128.155063-15.775451-79.140571 238.884571-85.050514 386.340571-51.018606 83.72224-59.5968 153.983269-51.018606 221.684297 16.22016 128.005851 144.243566 189.875931 208.582949 216.119589 106.343863 43.37664 363.941303 85.027109 546.886217-50.611932 121.458103-90.05056 131.007634-276.444891 45.766949-387.191954 17.048137-338.704091-1.530149-407.051703-88.80128-379.026286-75.293257 24.178103-128.535406 118.272-160.914286 169.691429-47.150811-13.76256-228.094537-21.334309-273.554286 0C298.039589 103.897966 230.499474 69.915794 209.188571 67.291429z" fill="#FCF3E8" p-id="3048"></path><path d="M238.445714 646.582857c42.817829 0 77.531429-18.338377 77.531429-40.96s-34.7136-40.96-77.531429-40.96S160.914286 583.001234 160.914286 605.622857s34.7136 40.96 77.531428 40.96z m529.554286 0c42.820754 0 77.531429-18.338377 77.531429-40.96s-34.710674-40.96-77.531429-40.96-77.531429 18.338377-77.531429 40.96 34.710674 40.96 77.531429 40.96z" fill="#FF8F8E" opacity=".6" p-id="3049"></path><path d="M329.142857 596.845714c37.972846 0 68.754286-30.78144 68.754286-68.754285S367.115703 459.337143 329.142857 459.337143 260.388571 490.118583 260.388571 528.091429 291.170011 596.845714 329.142857 596.845714z m356.937143 0c37.972846 0 68.754286-30.78144 68.754286-68.754285S724.052846 459.337143 686.08 459.337143 617.325714 490.118583 617.325714 528.091429s30.78144 68.754286 68.754286 68.754285z m-118.482651-4.640183c0 21.656137-27.241326 64.435931-60.84608 64.435932-33.601829 0-60.843154-42.779794-60.843155-64.435932 0-21.656137 27.241326-39.210423 60.843155-39.210422 33.604754 0 60.84608 17.554286 60.84608 39.210422z m-268.478172 85.621029a11.702857 11.702857 0 1 0-23.066331-3.97312c-6.108891 35.456731 15.254674 65.612069 42.832457 83.848046a130.144549 130.144549 0 0 0 15.348297 8.695223C366.881646 790.779611 442.564023 825.051429 497.371429 825.051429c102.853486 0 155.882057-28.967497 195.180251-64.216503C720.749714 744.629394 743.131429 717.385143 743.131429 675.84a11.702857 11.702857 0 0 0-23.405715 0c0 37.665646-23.762651 60.27264-54.649417 72.194926-15.488731 5.98016-32.33792 9.017051-47.747657 9.613897-15.5648 0.602697-28.803657-1.31072-37.276526-4.514377-26.065189-9.847954-45.017966-16.173349-62.200685-18.932297V713.874286a11.702857 11.702857 0 0 0-23.405715 0v18.797714c-21.261166 0.728503-43.189394 7.308434-76.770743 17.384594-3.033966 0.909897-6.158629 1.849051-9.388617 2.811612-23.271131 6.954423-53.230446 0.693394-76.489874-14.690012-23.28576-15.398034-36.609463-37.531063-32.677303-60.351634z" fill="#000000" p-id="3050"></path><path d="M168.439223 381.088914c-21.9136 1.123474-20.655543-234.958263 50.895726-235.514148C231.110949 146.271086 315.51488 231.927223 313.051429 254.537143c-1.383863 12.715154-32.8704 36.530469-68.07552 63.16032-27.405166 20.72576-57.060206 43.160137-76.536686 63.391451z m654.359406 11.512686c21.9136 1.123474 35.898514-214.133029-50.898652-235.514149-11.776 0.69632-94.131931 80.6912-91.66848 103.30112 1.451154 13.317851 35.210971 40.77568 71.808732 70.541898 25.541486 20.772571 52.466834 42.671543 70.7584 61.671131z" fill="#FF8F8E" opacity=".6" p-id="3051"></path><path d="M486.797897 573.715017c0.816274 2.483931-3.408457 6.10304-9.435428 8.0896-6.029897 1.983634-11.579977 1.579886-12.396252-0.90112-0.8192-2.483931 3.405531-6.105966 9.435429-8.0896 6.029897-1.983634 11.579977-1.579886 12.396251 0.90112z" fill="#FFFFFF" opacity=".6" p-id="3052"></path><path d="M314.514286 529.554286a21.942857 21.942857 0 1 0 0-43.885715 21.942857 21.942857 0 0 0 0 43.885715z m348.16 2.925714a21.942857 21.942857 0 1 0 0-43.885714 21.942857 21.942857 0 0 0 0 43.885714z" fill="#FFFFFF" p-id="3053"></path><path d="M355.974583 641.799314l1.421897-2.779428c11.167451-21.890194 26.073966-51.106377 48.417646-75.357623 23.083886-25.055817 53.686857-44.347977 95.945874-44.347977 47.680366 0 77.420251 18.464183 99.69664 41.887451 11.302034 11.887177 20.722834 25.099703 29.640411 38.203977 1.45408 2.138697 2.902309 4.283246 4.347612 6.424869 7.264549 10.760777 14.450103 21.407451 21.989668 30.327954a8.777143 8.777143 0 1 0 13.405623-11.334217c-6.866651-8.124709-13.411474-17.814674-20.676023-28.5696l-0.005851-0.005851c-1.483337-2.197211-2.995931-4.438309-4.54656-6.71744-9.002423-13.227154-19.08736-27.4432-31.433874-40.424595-25.023634-26.313874-59.163794-47.346834-112.417646-47.346834-48.438126 0-83.420891 22.399269-108.854126 50.006309-24.025966 26.076891-39.900891 57.215269-50.95424 78.897737l-1.606217 3.148068a8.774217 8.774217 0 1 0 15.629166 7.9872z m55.88992 3.736137c2.050926-4.979566 3.856091-9.619749 5.585188-14.063908 2.358126-6.067931 4.578743-11.776 7.094858-17.501623 4.195474-9.555383 8.633783-17.688869 14.406217-24.382903 11.027017-12.797074 28.367726-21.998446 63.622583-21.998446 39.424 0 56.358034 9.935726 67.238765 22.996115 5.81632 6.980754 10.26048 15.27808 15.254675 25.085074l1.322422 2.603886c4.540709 8.94976 9.599269 18.920594 16.366446 28.859245a8.780069 8.780069 0 0 0 14.511543-9.877211c-6.10304-8.964389-10.667154-17.952183-15.266377-27.01312l-0.011703-0.02048a1019.611429 1019.611429 0 0 0-1.278537-2.51904c-4.944457-9.710446-10.175634-19.669577-17.410926-28.356023-15.225417-18.274011-37.905554-29.312731-80.726308-29.312731-38.648686 0-61.580434 10.295589-76.919955 28.092708-7.41376 8.6016-12.682971 18.540251-17.18272 28.780252-2.574629 5.868983-5.111223 12.366994-7.641965 18.86208-1.729097 4.429531-3.455269 8.859063-5.196069 13.083794a8.777143 8.777143 0 1 0 16.231863 6.682331z" fill="#000000" opacity=".25" p-id="3054"></path><path d="M586.605714 792.868571c-67.876571-25.746286-131.657143-10.728594-155.062857 0 7.314286 4.877166 29.590674 19.017143 73.142857 19.017143 43.885714 0 73.631451-10.24 81.92-19.017143z" fill="#FF8F8E" p-id="3055"></path><path d="M598.15936 346.588891a7.314286 7.314286 0 0 1 1.723246 10.19904c-7.2704 10.21952-16.843337 28.818286-21.325532 50.661669-4.467566 21.776091-3.780023 46.22336 8.613303 68.85376a7.314286 7.314286 0 0 1-12.832183 7.027566c-14.523246-26.5216-15.0528-54.737189-10.111268-78.821669 4.929829-24.017189 15.395109-44.476709 23.733394-56.200046a7.314286 7.314286 0 0 1 10.19904-1.72032z m-168.339749 69.067338a7.314286 7.314286 0 0 1 10.295589 0.997668c4.046263 4.912274 8.996571 13.379291 11.351771 23.508114 2.387383 10.26048 2.182583 22.645029-4.842057 34.584869a7.31136 7.31136 0 1 1-12.609828-7.416686c4.678217-7.952091 4.962011-16.293303 3.203657-23.853348-1.787611-7.691703-5.617371-14.148754-8.3968-17.525029a7.314286 7.314286 0 0 1 0.997668-10.295588z m80.34304 6.258102a7.320137 7.320137 0 0 0-9.254034-4.625554 7.320137 7.320137 0 0 0-4.625554 9.254034c1.582811 4.745509 3.464046 12.191451 3.999451 18.929372 0.269166 3.382126 0.169691 6.211291-0.275017 8.288548a7.914057 7.914057 0 0 1-0.708023 2.091886 2.557074 2.557074 0 0 1-0.248685 0.380343 0.582217 0.582217 0 0 1-0.06144 0.06144l-0.017555 0.017554a7.31136 7.31136 0 0 0-1.69984 10.201966 7.31136 7.31136 0 0 0 10.201966 1.69984c4.13696-2.954971 5.994789-7.460571 6.837394-11.392731 0.857234-4.002377 0.883566-8.3968 0.555886-12.510355-0.658286-8.256366-2.873051-16.901851-4.704549-22.396343z" fill="#000000" opacity=".1" p-id="3056"></path><path d="M142.862629 952.150309c-20.108434 9.403246-60.448183 17.887817-60.930926-23.411566-0.605623-51.627154 24.131291-149.477669 129.708617-122.464549 105.577326 27.01312 117.040274 107.455634 112.212846 122.464549-4.824503 15.005989-15.082057 36.018469-48.86528 23.411566-8.247589 20.00896-33.543314 50.66752-68.777692 13.206674-13.472914 11.805257-45.006263 25.693623-63.347565-13.206674z m739.731748 10.705188c20.594103 9.710446 61.905189 18.467109 62.399634-24.1664 0.617326-53.291886-24.713509-154.299246-132.83328-126.414263-108.122697 27.884983-119.860663 110.922606-114.919131 126.414263 4.944457 15.491657 15.447771 37.179977 50.044343 24.1664 8.443611 20.655543 34.353737 52.302994 70.433646 13.633829 13.800594 12.1856 46.091703 26.5216 64.874788-13.633829z" fill="#FCF3E8" p-id="3057"></path><path d="M81.931703 932.896183c-0.321829-27.408091 6.193737-66.053851 25.424457-93.625783 9.4208-13.502171 21.670766-24.069851 37.56032-29.821806 15.907109-5.760731 36.744046-7.159223 64.093623-0.125805 55.56224 14.286263 85.11488 42.247314 100.398811 67.443565 7.738514 12.75904 11.942766 25.017783 13.917623 34.79552 0.988891 4.89472 1.395566 9.043383 1.445303 12.203155 0.049737 3.177326-0.272091 4.66944-0.3072 4.830354l-0.002926 0.014628c-2.583406 8.077897-5.699291 14.309669-10.090788 17.627429-3.13344 2.366903-9.827474 5.412571-25.6-0.503223l-13.285669-4.982491-5.383314 13.130605c-4.011154 9.783589-11.498057 20.087954-19.8656 24.011338-3.662994 1.714469-7.601006 2.29376-12.317257 0.968411-5.020526-1.407269-11.998354-5.286766-20.670172-14.552503l-9.698743-10.36288-10.6496 9.37984c-6.044526 5.3248-15.389257 10.266331-23.885531 10.327772a19.090286 19.090286 0 0 1-11.430766-3.548892c-3.856091-2.688731-8.434834-7.671223-12.756114-16.887223l-6.220069-13.25056-13.247634 6.22592c-10.187337 4.789394-23.990857 8.484571-34.020206 6.998309-4.581669-0.678766-7.375726-2.270354-9.172114-4.376869-1.831497-2.153326-4.128183-6.61504-4.236434-15.918811z m134.363428-151.908937c-31.802514-8.177371-58.79808-7.20896-81.340708 0.950857-22.557257 8.168594-39.380114 23.08096-51.594972 40.594286-24.031817 34.453211-31.041829 79.9744-30.684891 110.706102 0.16384 13.952731 3.718583 25.737509 11.220114 34.543909 7.53664 8.850286 17.554286 12.928731 27.15648 14.350629 12.931657 1.916343 26.723474-0.687543 38.063543-4.426606 4.596297 6.831543 9.856731 12.299703 15.743269 16.40448a48.362057 48.362057 0 0 0 28.367725 8.800548c12.141714-0.087771 23.288686-4.411977 32.042423-9.654857 8.0896 6.805211 16.334263 11.416137 24.745692 13.777189 11.989577 3.361646 23.12192 1.808091 32.636343-2.647772 12.843886-6.018194 22.285166-17.036434 28.534491-27.487085 16.372297 3.507931 30.055863 0.810423 40.81664-7.314286 12.168046-9.189669 17.504549-23.238949 20.327863-32.059977 2.486857-7.773623 2.141623-19.549623-0.324754-31.755703-2.606811-12.911177-7.993051-28.370651-17.580618-44.17536-19.362377-31.925394-55.383771-64.47104-118.12864-80.606354z m725.796572 160.68608c0.318903-27.408091-6.193737-66.053851-25.424457-93.625783-9.417874-13.502171-21.670766-24.069851-37.56032-29.821806-15.910034-5.760731-36.744046-7.159223-64.093623-0.125806-55.56224 14.286263-85.117806 42.247314-100.398812 67.443566-7.738514 12.75904-11.942766 25.017783-13.920548 34.79552-0.988891 4.89472-1.39264 9.043383-1.442377 12.203154-0.049737 3.177326 0.272091 4.672366 0.3072 4.830355v0.014628c2.586331 8.077897 5.702217 14.309669 10.093714 17.627429 3.13344 2.366903 9.827474 5.412571 25.597074-0.503223l13.288595-4.982491 5.383314 13.130605c4.011154 9.783589 11.495131 20.087954 19.8656 24.011337 3.662994 1.714469 7.59808 2.29376 12.317257 0.968412 5.020526-1.407269 11.998354-5.286766 20.670171-14.552503l9.698743-10.36288 10.6496 9.37984c6.044526 5.3248 15.386331 10.266331 23.885532 10.327771a19.101989 19.101989 0 0 0 11.430765-3.548891c3.856091-2.688731 8.434834-7.671223 12.756115-16.887223l6.217143-13.25056 13.25056 6.22592c10.187337 4.789394 23.990857 8.484571 34.020205 6.998309 4.581669-0.678766 7.375726-2.270354 9.172115-4.376869 1.831497-2.153326 4.128183-6.61504 4.236434-15.918811z m-134.363429-151.908937c31.80544-8.177371 58.79808-7.20896 81.340709 0.950857 22.557257 8.168594 39.377189 23.08096 51.592046 40.594285 24.034743 34.453211 31.044754 79.9744 30.684891 110.706103-0.160914 13.952731-3.718583 25.737509-11.217189 34.543909-7.53664 8.850286-17.554286 12.928731-27.15648 14.350628-12.934583 1.916343-26.723474-0.687543-38.060617-4.426605-4.599223 6.831543-9.859657 12.299703-15.746194 16.40448a48.37376 48.37376 0 0 1-28.367726 8.800548c-12.141714-0.087771-23.288686-4.411977-32.042423-9.654857-8.0896 6.805211-16.334263 11.416137-24.748617 13.777189-11.986651 3.361646-23.118994 1.808091-32.633417-2.647772-12.843886-6.018194-22.285166-17.036434-28.534491-27.487085-16.375223 3.507931-30.055863 0.810423-40.81664-7.314286-12.168046-9.189669-17.504549-23.238949-20.327863-32.059977-2.486857-7.773623-2.141623-19.549623 0.321828-31.755703 2.609737-12.911177 7.995977-28.370651 17.580618-44.17536 19.365303-31.925394 55.386697-64.47104 118.131565-80.606354z" fill="#3C3936" p-id="3058"></path></svg>