<?xml version="1.0" standalone="no"?><!DOCTYPE svg PUBLIC "-//W3C//DTD SVG 1.1//EN" "http://www.w3.org/Graphics/SVG/1.1/DTD/svg11.dtd"><svg t="1762168703963" class="icon" viewBox="0 0 1024 1024" version="1.1" xmlns="http://www.w3.org/2000/svg" p-id="6140" xmlns:xlink="http://www.w3.org/1999/xlink" width="32" height="32"><path d="M225.625234 884.542903s165.358446-8.262217 275.2512-9.268663c122.10176-1.117623 316.609097 9.268663 316.609097 9.268663l201.804069 22.820571s-315.274971 18.680686-518.413166 18.540252C301.635291 925.763291 11.702857 907.363474 11.702857 907.363474l213.922377-22.820571z" fill="#000000" opacity=".5" p-id="6141"></path><path d="M779.015314 178.834286c-4.663589-7.402057-6.357577-15.532617-3.510857-25.301577 8.159817-9.142857 21.348937-20.523886 35.793189-26.969235 15.11424-6.740846 29.602377-7.402057 42.238537 2.527817 13.745006 10.795886 21.310903 30.006126 24.420937 51.995795 2.299611 16.26112 1.969006 32.738743 0.646583 45.611885-22.574811-4.3008-50.451017-12.352366-72.004754-24.3712-12.73856-7.109486-22.267611-15.0528-27.583635-23.493485z m88.982675-68.148663c-21.928229-17.226606-46.527634-14.289189-66.235246-5.497417-19.461851 8.680594-36.074057 23.712914-45.579703 34.894994l-1.416046 1.667657-0.719725 2.065554c-6.161554 17.712274-3.434789 33.841737 5.163885 47.490195 8.259291 13.115977 21.568366 23.417417 35.986286 31.460205 28.873874 16.106057 66.220617 25.348389 91.653851 29.058195l11.217189 1.635474 1.992411-11.158674c2.750171-15.395109 4.540709-39.962331 1.070812-64.49152-3.423086-24.195657-12.314331-50.766994-33.133714-67.124663zM248.273189 185.004617c4.663589-7.402057 6.357577-15.532617 3.510857-25.298651-8.162743-9.145783-21.348937-20.526811-35.793189-26.97216-15.11424-6.740846-29.602377-7.402057-42.241463 2.527817-13.74208 10.798811-21.307977 30.006126-24.418011 51.995794-2.299611 16.264046-1.969006 32.738743-0.646583 45.611886 22.574811-4.3008 50.451017-12.352366 72.001829-24.3712 12.741486-7.109486 22.270537-15.0528 27.589485-23.493486zM159.290514 116.853029c21.925303-17.226606 46.527634-14.286263 66.235246-5.497418 19.461851 8.68352 36.074057 23.712914 45.579703 34.894995l1.416046 1.667657 0.719725 2.06848c6.158629 17.709349 3.434789 33.841737-5.163885 47.490194-8.259291 13.113051-21.568366 23.414491-35.986286 31.45728-28.8768 16.106057-66.220617 25.348389-91.656777 29.058194l-11.217189 1.635475-1.989486-11.158675c-2.750171-15.395109-4.540709-39.959406-1.070811-64.49152 3.423086-24.195657 12.317257-50.766994 33.133714-67.124662z" fill="#000000" p-id="6142"></path><path d="M774.647223 152.189806c14.68416-17.542583 51.3024-46.83776 80.32256-23.680732 29.017234 23.154103 27.636297 78.063909 23.317943 102.622355-41.457371-6.141074-120.223451-30.523977-103.640503-78.941623z m-522.368732 5.851428c-14.681234-17.542583-51.3024-46.83776-80.32256-23.680731-29.017234 23.154103-27.636297 78.063909-23.317942 102.622354 41.457371-6.141074 120.223451-30.523977 103.640502-78.941623z" fill="#FFE2DB" p-id="6143"></path><path d="M499.79392 91.302766c-25.319131 2.12992-47.057189 9.452983-58.909257 15.27808l-3.613257 1.772983-3.938012-0.8192c-11.395657-2.378606-29.374171 0.201874-48.836023 5.535451-18.914743 5.184366-37.19168 12.375771-48.095817 17.352411l-0.631954 0.289646-0.664137 0.210652c-11.439543 3.660069-30.28992 11.656046-48.616594 23.481782-18.475886 11.91936-35.237303 26.969234-44.078812 44.295315-11.819886 23.159954-30.889691 36.094537-49.386057 42.791497-17.194423 6.231771-34.330331 7.255771-46.01856 6.144-4.087223 1.325349-8.15104 6.029897-10.752 17.247086-2.668251 11.498057-2.516114 25.281097-1.45408 34.42688l1.231726 10.620342-10.468206 2.185509c-9.090194 1.895863-18.537326 11.149897-26.998491 26.041783-8.0896 14.236526-13.584091 30.667337-16.091429 41.284754l-1.480411 6.263954-6.079635 2.103589c-6.149851 2.132846-11.266926 9.888914-13.39392 25.257691-1.98656 14.368183-0.582217 30.76096 1.389715 41.387155l1.559405 8.390948-7.513234 4.046263c-16.667794 8.981943-22.791314 23.739246-23.434971 40.237349-0.658286 16.972069 4.701623 34.584869 9.91232 45.439268l4.502674 9.37984-8.78592 5.57056c-0.08192 0.049737-1.158583 0.731429-1.790537 4.400275-0.631954 3.668846-0.503223 8.76544 0.459337 14.944548 1.913417 12.273371 6.629669 25.942309 10.433097 34.728229l1.533074 3.540114-0.871863 3.756617c-2.229394 9.616823 1.088366 21.109029 8.309029 34.350812 3.50208 6.419017 7.636114 12.750263 11.849143 18.944 1.149806 1.693989 2.328869 3.405531 3.505006 5.117074 2.984229 4.335909 5.950903 8.645486 8.405577 12.53376l2.159177 3.42016-0.415452 4.025783c-0.34816 3.367497 0.664137 7.694629 3.899978 13.101348 3.224137 5.383314 8.186149 11.03872 14.312594 16.62976 12.255817 11.185006 27.639223 20.731611 37.975771 26.006675l6.720366 3.431862-0.351086 7.533715c-0.067291 1.430674 0.415451 3.458194 2.586332 6.281508 2.217691 2.884754 5.728549 5.947977 10.327771 8.97024 9.201371 6.050377 20.734537 10.623269 28.473052 12.896549l8.402651 2.469303v8.446537c0.16384 0.313051 0.73728 1.164434 2.475154 2.524891 2.963749 2.320091 7.674149 4.760137 13.824 7.077303 12.176823 4.590446 27.171109 7.671223 37.256046 9.055086l5.155109 0.708023 2.925714 4.303725c7.317211 10.749074 23.891383 18.195017 44.962377 21.024183 20.617509 2.770651 41.872823 0.59392 54.719634-4.1984l8.332435-3.110034 5.225325 7.197257c5.046857 6.945646 11.852069 8.733257 20.248869 7.492754 8.914651-1.316571 18.045806-6.035749 23.584183-10.073234l7.668297-5.588114 7.053897 6.345874c5.883611 5.292617 17.05984 9.962057 32.852846 13.04576 15.395109 3.007634 33.631086 4.21888 52.051383 3.818057 18.405669-0.400823 36.612389-2.407863 51.899245-5.649554 15.725714-3.332389 26.855131-7.674149 32.355475-11.843291l7.302582-5.532526 7.124115 5.757806c10.497463 8.487497 27.633371 9.663634 48.013897 5.24288 19.769051-4.286171 39.286491-13.162789 51.042011-19.985555l5.20192-3.016411 5.482789 2.472228c16.2816 7.343543 36.913737 6.193737 57.50784 0.509075 20.35712-5.617371 38.812526-15.161051 49.324617-22.074515l2.521966-1.65888 3.01056-0.231131c33.353143-2.565851 41.723611-22.349531 42.545737-28.540343l1.04448-7.881874 7.712183-1.930972c16.187977-4.057966 30.84288-16.626834 42.923154-32.405211 11.942766-15.602834 20.25472-32.902583 24.14592-43.768686l1.76128-4.912274 4.830354-1.974857c3.466971-1.416046 6.825691-4.502674 9.853806-10.026423 3.045669-5.558857 5.336503-12.858514 6.88128-21.240686 3.089554-16.77312 2.788206-35.623497 1.518446-47.744731l-0.509075-4.880092 3.121738-3.785874c5.09952-6.18496 7.261623-14.631497 7.366948-23.753874 0.108251-9.087269-1.857829-17.539657-3.545966-22.173989l-1.72032-4.716251 2.23232-4.493897c9.014126-18.159909 8.443611-36.931291 3.610332-53.63712-4.880091-16.863817-13.917623-30.831177-20.424412-38.201052l-2.92864-3.31776v-4.426605c0-18.089691-7.448869-31.638674-10.234148-35.187566l-2.194286-2.794057-0.269166-3.54304c-5.245806-68.748434-42.703726-99.652754-57.788708-106.156617l-8.276846-3.566446 1.334126-8.911726c3.326537-22.214949-7.744366-38.745234-15.44192-46.109257-19.140023 0.883566-36.410514-5.128777-50.120412-12.8-14.883109-8.329509-26.369463-19.0464-32.659748-26.78784l-0.503223-0.620251-0.415451-0.687543C758.5792 157.12256 709.804617 135.656594 690.117486 131.189029l-3.525486-0.79872-2.463451-2.653623c-8.197851-8.835657-25.064594-14.859703-45.787429-18.00192-20.011886-3.033966-40.752274-2.975451-53.549349-1.989486l-3.510857 0.269166-3.077851-1.714469c-25.175771-14.014171-53.151451-17.12128-78.409143-14.997211zM195.01056 812.91264s0.008777 0.014629 0.017554 0.046811a0.198949 0.198949 0 0 1-0.017554-0.046811zM586.476983 84.169874c-29.520457-15.459474-61.2352-18.496366-88.646217-16.190903-26.138331 2.200137-49.078857 9.306697-63.768869 15.945143-16.71168-2.284983-37.49888 1.571109-55.752411 6.571155-19.953371 5.471086-39.090469 12.955063-51.003977 18.35008-13.276891 4.32128-33.660343 13.08672-53.505463 25.892571-20.035291 12.925806-40.702537 30.722926-52.235703 53.318217-8.551863 16.755566-22.279314 26.27584-36.509989 31.428023-14.447177 5.237029-28.891429 5.7344-37.285303 4.692846l-1.682285-0.210652-1.676435 0.277943c-19.587657 3.247543-27.686034 21.246537-30.956982 35.34848-2.571703 11.07968-3.066149 23.104366-2.638995 32.987429-14.455954 6.869577-25.161143 20.918857-32.601234 34.014354-8.086674 14.230674-13.794743 29.953463-17.083246 41.869897-15.120091 8.633783-20.755017 26.650331-22.79424 41.395932-1.951451 14.101943-1.2288 29.134263 0.304275 40.851748-20.409783 14.227749-27.72992 35.453806-28.50816 55.509577-0.702171 18.051657 3.76832 35.866331 8.943908 48.98816-2.627291 4.008229-4.057966 8.51968-4.783543 12.735635-1.243429 7.206034-0.751909 15.131794 0.400823 22.519222 2.065554 13.273966 6.653074 27.179886 10.673006 37.071726-2.507337 16.954514 3.970194 33.455543 11.307886 46.910903 4.060891 7.448869 8.715703 14.537874 13.039908 20.898377 1.345829 1.980709 2.64192 3.859017 3.876572 5.655406 2.056777 2.987154 3.949714 5.740251 5.670034 8.344137 0.169691 8.414354 3.209509 16.255269 7.285028 23.06048 4.798171 8.019383 11.512686 15.412663 18.613395 21.89312 12.045166 10.991909 26.299246 20.333714 37.463771 26.547931 1.196617 5.204846 3.70688 9.804069 6.691109 13.683566 4.373943 5.690514 10.184411 10.42432 16.024137 14.262857 9.198446 6.047451 19.728091 10.684709 28.300434 13.709897 2.21184 4.9152 5.947977 8.733257 9.479314 11.498058 5.658331 4.429531 12.88192 7.867246 19.997258 10.550125 12.405029 4.675291 26.66496 7.852617 37.49888 9.616823 13.692343 16.231863 36.694309 23.914789 57.940845 26.770286 20.158171 2.709211 41.641691 1.480411 58.230492-2.993006 11.003611 10.251703 24.80128 12.109531 36.834743 10.330697 9.935726-1.468709 19.29216-5.409646 26.577188-9.570011 10.143451 6.36928 23.171657 10.479909 36.670903 13.118903 17.446034 3.405531 37.422811 4.672366 57.051429 4.245211 19.649097-0.427154 39.330377-2.565851 56.243931-6.152777 12.811703-2.715063 24.956343-6.4512 34.327406-11.462949 18.250606 10.380434 41.112137 9.286217 60.571063 5.067338 20.020663-4.344686 39.347931-12.603977 52.774034-19.801235 22.144731 7.916983 46.729509 5.26336 67.72736-0.53248 21.52448-5.942126 40.986331-15.643794 53.441097-23.464228 36.170606-3.803429 53.476206-24.461897 59.078949-40.804937 20.403931-7.285029 36.793783-22.949303 48.920868-38.792046 12.112457-15.819337 20.8896-33.01376 25.915977-45.655772 7.369874-4.36224 12.741486-10.933394 16.615132-18.00192 4.66944-8.516754 7.571749-18.461257 9.376914-28.250697 3.221211-17.492846 3.247543-36.284709 2.194286-49.830765 7.296731-10.924617 9.561234-23.499337 9.689965-34.295223a92.511086 92.511086 0 0 0-3.423085-25.678995c10.079086-23.303314 8.709851-46.659291 3.077851-66.126994-5.30432-18.332526-14.5408-33.824183-22.536777-43.821348-0.927451-18.932297-7.674149-34.087497-12.931657-42.171246-6.094263-67.03104-40.155429-104.377783-63.83616-118.59968 1.337051-31.983909-17.554286-54.479726-28.622263-62.589806l-3.674697-2.691657-4.529006 0.497371c-14.924069 1.650103-29.151817-2.779429-41.270126-9.558308-11.75552-6.577006-20.772571-14.965029-25.442011-20.538514-32.065829-52.294217-83.338971-76.75904-108.93312-83.611063-14.271634-13.306149-36.723566-19.561326-56.826149-22.606995-20.360046-3.086629-41.117989-3.270949-55.372068-2.425417z" fill="#000000" p-id="6144"></path><path d="M436.978834 104.462629c-28.072229-5.851429-79.614537 13.001874-101.876297 23.159954-24.148846 7.718034-77.426103 32.908434-97.347291 71.914057-19.924114 39.005623-64.146286 43.879863-83.766126 41.442743-23.546149 3.899977-24.90368 43.879863-22.639177 63.382674-28.072229 5.848503-45.655771 52.004571-50.936686 74.351177-25.360091 8.777143-23.396937 55.66464-19.245348 78.011246-41.65632 22.4256-29.432686 75.164526-18.110172 98.728229-15.395109 9.751406-3.396754 48.757029 4.52608 67.039817-6.337097 27.302766 19.997257 57.695086 32.826514 78.011245-2.715063 26.328503 39.620023 54.848366 61.126949 65.819795-0.906971 19.502811 32.07168 34.128457 48.672183 39.005623 0 16.577097 41.507109 26.407497 62.2592 29.251291 19.924114 29.254217 81.501623 31.691337 110.934308 20.722834 16.299154 22.428526 46.033189 9.344731 58.862446 0 32.39936 29.125486 150.089143 22.633326 179.981166 0 28.9792 23.402789 85.275794 0.813349 109.802057-13.408548 38.938331 17.55136 93.198629-7.314286 115.460389-21.939932 38.034286-2.925714 50.559269-26.410423 52.068937-37.7856 38.941257-9.751406 65.278537-58.508434 73.578788-81.665463 26.261211-10.728594 27.5456-63.789349 24.90368-88.979748 14.488137-17.554286 9.80992-44.693211 5.658332-56.071314 20.82816-41.928411-3.393829-85.726354-18.110172-102.385372 0-20.477074-8.300251-36.161829-12.45184-41.442743-5.433051-71.182629-44.52352-105.232091-63.391451-113.3568 4.529006-30.22848-13.203749-51.600823-22.639177-58.508434-35.316297 3.899977-65.275611-21.126583-75.840366-34.128457-30.790217-50.705554-81.501623-73.13408-103.008549-78.011246-21.735131-23.402789-79.991954-25.1904-106.405302-23.157028-54.33344-30.22848-119.23456-12.5952-144.893075 0z" fill="#FFFFFF" p-id="6145"></path><path d="M376.679863 338.938149l14.88896 11.6736c30.4128 23.841646 118.125714 59.977143 217.924754 4.569965l9.40032-5.219474 5.994789 8.926354c7.252846 10.798811 21.875566 26.559634 41.395931 37.504732 19.31264 10.830994 42.811977 16.661943 68.850834 9.218925l7.972572-2.279131 4.79232 6.764251c6.957349 9.815771 19.628617 25.052891 34.593646 38.25664 15.31904 13.5168 31.322697 23.358903 45.026742 25.131886l4.534858 0.585143 2.934491 3.505006c20.801829 24.82176 32.744594 61.080137 36.533394 96.256 3.780023 35.073463-0.289646 71.551269-14.142903 96.940617-20.158171 36.942994-61.314194 67.718583-118.070125 89.222583-56.972434 21.588846-130.849646 34.315703-218.463086 34.315703-78.941623 0-152.932937-8.162743-213.705874-27.390538-60.66176-19.18976-109.562149-49.8688-136.016457-95.925394-19.499886-33.938286-38.560914-118.198857 21.357714-185.83552l2.200137-2.481006 3.1744-0.959634c8.209554-2.483931 21.252389-8.051566 32.762149-16.372297 11.691154-8.452389 20.158171-18.528549 22.410971-29.57312l1.772983-8.674743 8.829806-0.65536c16.384-1.217097 41.893303-6.398537 64.359862-17.759086 22.519223-11.38688 40.129097-27.958126 44.89216-51.208777l3.794652-18.537325z m14.075611 39.406445c-10.330697 24.069851-30.927726 40.471406-52.200594 51.226332-22.293943 11.275703-46.726583 17.124206-65.056183 19.400411-5.725623 15.181531-17.501623 26.91072-29.166446 35.342629-12.51328 9.046309-26.267063 15.307337-36.390034 18.745051-48.552229 57.235749-32.6656 128.178469-16.524434 156.277029 22.375863 38.950034 64.997669 66.99008 122.780526 85.269943 57.67168 18.244754 129.053257 26.299246 206.649051 26.299245 85.504 0 156.449646-12.440137 210.171611-32.797257 53.938469-20.436114 89.35424-48.379611 105.814309-78.546651 10.713966-19.637394 14.918217-50.743589 11.419063-83.221943-3.303131-30.676114-13.244709-60.348709-28.593006-80.468846-19.204389-4.025783-37.74464-16.81408-52.651154-29.965166-13.546057-11.954469-25.301577-25.301577-33.417509-35.816594-30.222629 6.304914-57.285486-1.240503-78.754377-13.279817-18.531474-10.392137-33.274149-24.30976-43.043108-36.343223-94.377691 48.019749-178.822583 23.329646-221.037715-2.121143z" fill="#A0776D" p-id="6146"></path><path d="M613.013211 376.905143c-101.513509 55.544686-191.411931 19.584731-223.673782-5.339429-11.18208 53.833143-82.08384 72.276846-116.139155 74.769555-6.02112 29.052343-43.370789 46.995749-61.293714 52.335177-53.768777 59.816229-36.732343 134.682331-19.3536 164.492434C239.870537 744.339749 369.921463 775.314286 521.608046 775.314286c167.757531 0 280.672549-48.06656 316.155611-112.151406 23.806537-42.999223 16.032914-129.082514-20.433188-171.967634-33.549166-4.271543-70.61504-45.216914-84.95104-65.155657-57.639497 16.234789-103.593691-25.992046-119.366218-49.134446z" fill="#FFE2DB" p-id="6147"></path><path d="M672.914286 606.705371c34.087497 0 61.720869-10.36288 61.720868-23.145325s-27.633371-23.145326-61.720868-23.145326-61.720869 10.36288-61.720869 23.145326 27.633371 23.145326 61.720869 23.145325z m-330.204892 6.173258c34.087497 0 61.720869-10.36288 61.720869-23.145326s-27.633371-23.145326-61.720869-23.145326-61.720869 10.36288-61.720868 23.145326 27.633371 23.145326 61.720868 23.145326z" fill="#FFAF9C" p-id="6148"></path><path d="M426.030811 554.244389c0 20.450743-16.580023 37.030766-37.030765 37.030765-20.453669 0-37.033691-16.580023-37.033692-37.030765 0-20.453669 16.580023-37.033691 37.033692-37.033692 20.450743 0 37.030766 16.580023 37.030765 37.033692z m240.710218 0c0 20.450743-16.580023 37.030766-37.030766 37.030765-20.453669 0-37.033691-16.580023-37.033692-37.030765 0-20.453669 16.580023-37.033691 37.033692-37.033692 20.450743 0 37.030766 16.580023 37.030766 37.033692z m-152.959269 41.834788l0.201874 0.272092c0.412526 0.175543 0.810423 0.403749 1.181989 0.684617 7.63904 5.789989 16.83456 11.8784 25.626331 13.072091 4.17792 0.564663 8.045714-0.011703 11.656046-2.138697 3.66592-2.162103 7.644891-6.269806 11.401509-13.797669 1.471634-2.952046 4.97664-4.236434 7.826285-2.8672 2.849646 1.366309 3.967269 4.871314 2.492709 7.82336-4.499749 9.017051-9.9328 15.263451-16.214309 18.967406-6.342949 3.739063-12.960914 4.540709-19.186834 3.695177-11.354697-1.536-22.051109-8.657189-29.540937-14.248228-6.784731 5.675886-15.716937 12.00128-25.485897 14.128274-6.138149 1.337051-12.8 1.067886-19.417966-2.153326-6.559451-3.191954-12.475246-8.984869-17.677166-17.615725-1.702766-2.82624-0.871863-6.407314 1.860755-7.998903 2.732617-1.591589 6.32832-0.588069 8.031085 2.238171 4.344686 7.203109 8.639634 10.980206 12.466469 12.84096 3.765394 1.834423 7.668297 2.100663 11.787703 1.202469 8.668891-1.887086 17.349486-8.689371 24.502857-15.070355 2.3552-2.100663 6.044526-1.80224 8.238811 0.667063 0.087771 0.099474 0.169691 0.196023 0.248686 0.298423z m-5.971383-26.404571c5.965531 0 10.801737-5.851429 10.801737-9.259886 0-3.130514-4.081371-3.11296-9.373988-3.089554l-1.427749 0.002925-1.427748-0.002925c-5.289691-0.023406-9.373989-0.04096-9.373989 3.089554 0 3.408457 4.836206 9.259886 10.801737 9.259886z" fill="#5E3424" p-id="6149"></path><path d="M376.653531 548.071131a6.173257 6.173257 0 1 0 0-12.346514 6.173257 6.173257 0 0 0 0 12.346514z m240.710218 0a6.173257 6.173257 0 1 0 0-12.346514 6.173257 6.173257 0 0 0 0 12.346514z" fill="#FFFFFF" p-id="6150"></path><path d="M438.377326 526.470583a6.173257 6.173257 0 1 0-0.002926-12.346514 6.173257 6.173257 0 0 0 0.002926 12.346514z m141.955657 0a6.173257 6.173257 0 1 0-0.002926-12.346514 6.173257 6.173257 0 0 0 0.002926 12.346514z" fill="#FFCCC0" p-id="6151"></path><path d="M334.733897 841.350583c0 63.6928-51.679817 115.357989-115.46624 115.357988s-115.46624-51.665189-115.46624-115.357988c0-41.208686 21.623954-77.4144 54.260297-97.838812 2.276206 2.223543 5.158034 5.421349 8.999497 9.880138l1.568183 1.828571c4.842057 5.643703 11.029943 12.855589 17.495772 18.622171 6.729143 5.997714 18.183314 14.590537 33.142491 14.590538 14.39744 0 26.229029-6.843246 34.301074-12.67712 7.050971-5.096594 13.920549-11.492206 19.344823-16.541989l0.005852-0.005851 2.466377-2.290835c5.032229-4.646034 8.510903-7.609783 11.073828-9.391543 29.277623 20.968594 48.274286 55.190674 48.274286 93.824732z m23.405714 0c0 76.63616-62.17728 138.763703-138.871954 138.763703-76.6976 0-138.871954-62.127543-138.871954-138.763703 0-52.853029 29.57312-98.807223 73.090194-122.236343 10.24-5.514971 21.25824 7.302583 32.838217 20.784274 10.561829 12.288 21.591771 25.12896 32.943543 25.12896 13.007726 0 25.597074-11.699931 37.536914-22.797165 13.747931-12.77952 26.632777-24.754469 38.303452-17.138835 37.952366 24.769097 63.031589 67.586926 63.031588 116.259109z m332.007132 0c0 63.449966 52.124526 115.357989 117.008091 115.357988 64.883566 0 117.008091-51.908023 117.008092-115.357988 0-41.20576-21.928229-77.513874-55.176046-97.95584-2.343497 2.235246-5.321874 5.500343-9.324251 10.093714l-1.588663 1.828572c-4.89472 5.643703-11.144046 12.849737-17.680092 18.610468-6.81984 6.015269-18.306194 14.505691-33.23904 14.505692-14.39744 0-26.269989-6.773029-34.429805-12.606903-7.118263-5.087817-14.052206-11.471726-19.53792-16.524435l-2.501486-2.296685c-5.24288-4.786469-8.835657-7.80288-11.474652-9.581715-29.807177 20.997851-49.064229 55.298926-49.064228 93.927132z m-23.405714 0c0 76.63616 62.864823 138.763703 140.413805 138.763703 77.548983 0 140.413806-62.127543 140.413806-138.763703 0-52.853029-29.9008-98.807223-73.900617-122.236343-10.357029-5.514971-21.492297 7.302583-33.203932 20.784274-10.678857 12.288-21.83168 25.12896-33.309257 25.12896-13.151086 0-25.880869-11.699931-37.952365-22.797165-13.900069-12.77952-26.9312-24.754469-38.730606-17.138835-38.373669 24.769097-63.730834 67.586926-63.730834 116.259109z" fill="#000000" p-id="6152"></path><path d="M219.428571 959.634286c64.631954 0 117.028571-52.662857 117.028572-117.625417 0-41.258423-10.441874-72.031086-42.422857-93.026012-8.496274-5.576411-21.834606 4.929829-36.006766 16.091429-12.668343 9.976686-26.003749 20.48-37.136091 20.48-10.664229 0-23.677806-13.133531-35.483063-25.04704-10.400914-10.494537-19.8656-20.044069-25.956937-18.838675-27.949349 5.067337-57.051429 55.535909-57.051429 100.340298C102.4 906.971429 154.796617 959.634286 219.428571 959.634286z m588.068572 0c-66.249874 0-119.954286-52.662857-119.954286-117.625417 0-41.258423 14.031726-73.493943 46.811429-94.488869 10.108343-6.474606 23.47008 5.377463 37.419885 17.747383 12.04224 10.681783 24.523337 21.74976 35.722972 21.74976 9.716297 0 21.17632-11.799406 32.346697-23.303314 12.460617-12.832183 24.564297-25.295726 33.481874-20.5824 37.586651 19.859749 54.125714 54.073051 54.125715 98.87744C927.451429 906.971429 873.747017 959.634286 807.497143 959.634286z" fill="#FFE2DB" p-id="6153"></path></svg>