<?xml version="1.0" standalone="no"?><!DOCTYPE svg PUBLIC "-//W3C//DTD SVG 1.1//EN" "http://www.w3.org/Graphics/SVG/1.1/DTD/svg11.dtd"><svg t="1762168697687" class="icon" viewBox="0 0 1024 1024" version="1.1" xmlns="http://www.w3.org/2000/svg" p-id="5775" xmlns:xlink="http://www.w3.org/1999/xlink" width="32" height="32"><path d="M255.473371 889.382034s156.765623-7.832137 260.953235-8.78592c115.755886-1.059109 300.160731 8.78592 300.160731 8.78592l191.321234 21.635657s-298.896823 17.712274-491.481965 17.577692C327.533714 928.463726 52.662857 911.017691 52.662857 911.017691l202.810514-21.635657z" fill="#000000" opacity=".5" p-id="5776"></path><path d="M281.798949 125.270309C342.788389 81.785417 421.25312 64.365714 520.777143 64.365714c153.523931 0 292.978103 82.382263 367.504823 266.830995 44.988709 64.459337 58.596206 151.4496 46.872868 234.534034-11.819886 83.748571-49.68448 165.814857-110.381348 219.311543-181.151451 159.659154-414.210926 107.326903-517.298469 57.341074-60.930926-29.543863-194.817463-103.447406-211.093211-256.155063-8.358766-78.41792 0.234057-160.29696 54.737188-253.855451 28.639817-96.130194 69.936274-163.787337 130.68288-207.102537z m16.986697 23.821165C244.893989 187.517806 206.262857 248.931474 178.66752 342.372937l-0.509074 1.717394-0.906972 1.544778c-51.662263 87.98208-59.628983 163.857554-51.782217 237.491931 14.453029 135.59808 133.792914 203.3664 194.767726 232.930743 98.397623 47.712549 316.945554 95.319771 485.188754-52.964206 54.362697-47.914423 89.684846-123.011657 100.755749-201.450057 11.076754-78.488137-2.431269-158.041234-42.773943-214.955154l-1.000594-1.410195-0.643658-1.606217C791.663177 168.7552 662.308571 93.622857 520.774217 93.622857c-96.498834 0-167.97696 16.95744-221.988571 55.471543z" fill="#5E3424" p-id="5777"></path><path d="M806.534583 765.401966c111.75936-98.438583 142.178011-305.113966 58.514286-423.067063C794.887314 167.377189 664.163474 90.697143 520.651337 90.697143c-190.40256 0-291.284114 66.738469-345.92768 251.63776-51.954834 88.423863-60.064914 165.218011-52.171337 239.22688 14.924069 139.928137 137.906469 208.688274 197.111223 237.377828 97.85344 47.417051 317.182537 95.922469 486.87104-53.537645z" fill="#AB876B" p-id="5778"></path><path d="M334.552503 459.337143c47.419977 6.866651 61.407817-9.3184 74.810514-19.382857 21.931154-13.382217 47.864686-39.131429 104.029623-39.131429 60.916297 0 87.253577 23.692434 105.530514 39.131429 6.457051 5.456457 37.738789 26.249509 57.320595 26.249508 60.693943 0 102.341486-103.450331 171.789165-26.249508 26.196846 29.12256 31.205669 152.201509-36.606537 262.489234C738.32448 821.335771 577.10592 854.308571 519.84384 854.308571c-113.368503 0-211.605211-59.222309-255.46752-104.000365-43.862309-44.778057-129.960229-167.078766-95.524571-261.632C212.716983 368.239177 310.921509 455.914057 334.555429 459.337143z" fill="#FFE4CA" p-id="5779"></path><path d="M504.685714 635.096503c-67.876571-3.510857-113.128594-25.84576-127.268571-36.571429 6.825691-0.977189 23.113143-2.925714 33.645714-2.925714 13.165714 0 77.531429-27.794286 105.325714-24.868571s59.977143 5.851429 68.754286 13.165714c7.021714 5.851429 52.662857 12.188526 74.605714 14.628571-23.405714 13.651383-87.186286 40.082286-155.062857 36.571429z" fill="#5E3424" p-id="5780"></path><path d="M460.826331 675.161234c-21.079771-25.86624-4.880091-76.642011 5.854355-98.79552l49.707885-5.851428 49.833692 5.851428c6.831543 19.760274 25.550263 72.818103 5.75488 98.79552-20.588251 27.010194-84.801829 32.332069-111.150812 0z" fill="#FF8F8E" p-id="5781"></path><path d="M516.385646 564.621897l54.166674 6.360503 1.199543 3.469897 0.28672 0.825052c3.466971 10.023497 9.757257 28.20096 12.823406 47.223954 3.089554 19.172206 3.247543 41.141394-8.23296 56.205897-11.784777 15.459474-35.044206 23.862126-57.891109 24.55552-22.969783 0.69632-47.709623-6.322469-62.449371-24.406309-12.147566-14.906514-13.077943-36.202789-10.254629-55.339885 2.861349-19.406263 9.812846-38.212754 15.38048-49.702035l1.398491-2.884754 53.572755-6.30784z m0 11.784777l-45.787429 5.389166c-4.903497 10.801737-10.561829 26.978011-12.987246 43.429303-2.691657 18.256457-1.181989 35.278263 7.750218 46.237988 11.61216 14.248229 32.150674 20.734537 53.02272 20.102583 20.994926-0.637806 40.134949-8.402651 48.938422-19.953371 8.31488-10.909989 9.014126-28.458423 5.986012-47.250286-2.647771-16.42496-7.881874-32.326217-11.419063-42.613028l-45.503634-5.342355z" fill="#DF413F" p-id="5782"></path><path d="M516.388571 613.926034c0-20.48-3.902903-37.057097-13.165714-36.571428 19.502811-1.459931 40.96-1.16736 29.257143 0.002925-14.628571 1.462857-16.091429 16.088503-16.091429 36.568503z" fill="#D74D4B" p-id="5783"></path><path d="M514.925714 528.091429c38.777417 0 70.217143-27.966903 70.217143-52.77696 0-24.807131-31.439726-44.918491-70.217143-44.918492-38.780343 0-70.217143 20.11136-70.217143 44.918492 0 24.810057 31.4368 52.77696 70.217143 52.77696z m-155.367131 19.295085a11.699931 11.699931 0 0 0-14.046354-8.750811 11.699931 11.699931 0 0 0-8.750812 14.046354c3.288503 14.163383 12.45184 33.294629 31.679634 44.371383 19.769051 11.389806 47.18592 12.586423 83.178058-3.507931 44.842423-20.04992 85.56544-15.673051 122.338742 0.076068 29.353691 12.568869 60.854857 13.546057 85.185098 6.094263 23.57248-7.223589 44.962377-24.435566 42.896822-50.603154a11.702857 11.702857 0 0 0-23.332571 1.8432c0.760686 9.651931-6.837394 20.380526-26.4192 26.381165-18.824046 5.766583-44.637623 5.248731-69.117074-5.231177-41.624137-17.823451-89.243063-23.116069-141.1072 0.073143-31.58016 14.122423-50.676297 11.082606-61.940297 4.593372-11.805257-6.802286-18.197943-19.18976-20.564846-29.385875z" fill="#5E3424" p-id="5784"></path><path d="M495.57504 457.005349c0.816274 2.481006-3.408457 6.10304-9.438354 8.086674-6.029897 1.983634-11.577051 1.579886-12.396252-0.90112-0.816274-2.483931 3.408457-6.10304 9.438355-8.0896 6.026971-1.983634 11.577051-1.579886 12.396251 0.904046z" fill="#FFFFFF" opacity=".6" p-id="5785"></path><path d="M282.638629 176.040229c-29.502903 1.2288-96.607086 14.178011-128.985966 56.132754-40.474331 52.443429-116.042606 175.221029-129.091292 268.244114-13.048686 93.023086 97.250743 248.989989 136.47872 248.255634 39.227977-0.734354 73.856731-119.88992 71.314286-162.172342-0.53248-8.859063-1.9456-22.062811-3.642514-37.902629-6.392686-59.766491-16.808229-157.096229 0.854308-200.440686 14.020023-30.579566 20.924709-65.644251 27.001418-96.504685 6.793509-34.5088 12.55424-63.763017 26.07104-75.615086zM740.205714 190.487406c29.502903 1.220023 96.601234 14.122423 128.971337 55.957211 40.465554 52.291291 116.010423 174.711954 129.041555 267.477577 13.031131 92.762697-97.297554 248.32-136.522606 247.594423-39.227977-0.725577-73.833326-119.54176-71.285029-161.71008 0.535406-8.835657 1.951451-22.001371 3.648366-37.797303 6.407314-59.602651 16.840411-156.669074-0.813348-199.887725-14.014171-30.49472-20.913006-65.459931-26.983863-96.23552-6.787657-34.412251-12.542537-63.584549-26.056412-75.398583z" fill="#AB876B" p-id="5786"></path><path d="M287.287589 176.994011a14.628571 14.628571 0 0 0-1.135178-29.233737c-34.043611 1.319497-94.169966 15.58528-140.170971 60.70272-26.395794 25.889646-58.133943 73.043383-84.86912 125.246903-26.784914 52.302994-49.497234 111.528229-56.694491 162.105052-3.8912 27.352503 1.626697 58.08128 11.790628 87.935268 10.231223 30.050011 25.564891 60.35456 42.554514 87.338423 16.97792 26.960457 35.907291 51.074194 53.602012 68.605074 8.829806 8.747886 17.662537 16.164571 26.068114 21.465966 8.019383 5.061486 17.405074 9.327177 26.916572 9.172114 17.630354-0.289646 31.495314-13.1072 41.3696-26.272914 10.415543-13.88544 19.423817-32.171154 26.70592-51.074194 14.403291-37.378926 23.698286-81.601097 22.109622-106.613029-0.649509-10.201966-2.674103-25.933531-5.002971-44.058331v-0.002926c-0.318903-2.469303-0.643657-4.982491-0.965486-7.533714-2.767726-21.609326-5.851429-46.536411-7.92576-71.481052-2.080183-25.00608-3.11296-49.605486-1.887085-70.588708 1.260983-21.603474 4.821577-36.942994 10.105417-45.292983a14.628571 14.628571 0 0 0-24.722286-15.64672c-9.5232 15.046949-13.282743 36.872777-14.590537 59.234011-1.345829 22.981486-0.190171 49.146149 1.939748 74.722743 2.135771 25.64096 5.289691 51.121006 8.057418 72.76544 0.321829 2.53952 0.643657 5.014674 0.953782 7.428389 2.369829 18.475886 4.253989 33.127863 4.839132 42.31168 1.205394 18.938149-6.47168 58.575726-20.210834 94.237257-6.787657 17.618651-14.646126 33.154194-22.811795 44.037851-8.706926 11.609234-15.137646 14.52032-18.446628 14.572983-0.959634 0.017554-4.42368-0.623177-10.825143-4.660663-6.012343-3.794651-13.171566-9.66656-21.085623-17.507474-15.793006-15.64672-33.376549-37.90848-49.435794-63.411931-16.041691-25.47712-30.26944-53.71904-39.617097-81.176869-9.417874-27.659703-13.502171-53.408914-10.517943-74.38336 6.5536-46.074149 27.718217-102.025509 53.765851-152.891977 26.097371-50.963017 56.144457-94.968686 79.316114-117.695634 39.44448-38.683794 91.867429-51.229257 120.820298-52.355658z m455.293805 11.702858a14.628571 14.628571 0 0 1 1.097143-29.233738c35.038354 1.313646 92.007863 20.588251 133.359909 62.961372 25.424457 26.047634 57.048503 72.414354 83.944594 123.851337 26.904869 51.44576 49.982903 109.679177 57.153829 159.755703 3.879497 27.09504-1.67936 57.513691-11.872549 87.028297-10.263406 29.719406-25.632183 59.684571-42.648137 86.361234-17.004251 26.656183-35.957029 50.497829-53.672229 67.835612-8.838583 8.651337-17.67424 15.983177-26.079817 21.226057-8.02816 5.008823-17.38752 9.210149-26.843428 9.063863-17.560137-0.269166-31.419246-12.890697-41.319863-25.933532-10.418469-13.733303-19.420891-31.811291-26.694217-50.494903-7.325989-18.812343-13.171566-38.955886-17.01888-57.276708-3.794651-18.066286-5.85728-35.360183-5.023452-48.16896 0.658286-10.090789 2.697509-25.643886 5.041006-43.549257l0.974263-7.443017c2.782354-21.348937 5.883611-45.968823 7.978423-70.603338 2.100663-24.69888 3.15392-48.982309 1.9456-69.681737-1.243429-21.325531-4.786469-36.404663-10.020572-44.582034a14.628571 14.628571 0 1 1 24.640366-15.775451c9.549531 14.921143 13.300297 36.550949 14.587611 58.65472 1.325349 22.724023 0.149211 48.590263-2.001188 73.865508-2.156251 25.336686-5.333577 50.518309-8.118857 71.902354l-0.959635 7.337692c-2.387383 18.256457-4.28032 32.718263-4.871314 41.7792-0.579291 8.900023 0.871863 23.168731 4.461714 40.251977a343.598811 343.598811 0 0 0 15.649646 52.677486c6.767177 17.381669 14.599314 32.694857 22.735726 43.420525 8.66304 11.413211 15.087909 14.312594 18.464183 14.365258 1.012297 0.014629 4.508526-0.640731 10.907062-4.631406 6.02112-3.756617 13.183269-9.56416 21.100252-17.314377 15.801783-15.4624 33.397029-37.463771 49.470903-62.660023 16.059246-25.172846 30.295771-53.066606 39.660983-80.176274 9.432503-27.311543 13.519726-52.692114 10.564754-73.330103-6.498011-45.386606-27.917166-100.2496-54.116937-150.346606-26.205623-50.11456-56.287817-93.745737-78.959177-116.975909-35.831223-36.717714-85.56544-53.110491-113.517715-54.157897z" fill="#5E3424" p-id="5787"></path><path d="M362.788571 441.782857c33.929509 0 61.44-27.507566 61.44-61.44s-27.510491-61.44-61.44-61.44c-33.932434 0-61.44 27.507566-61.44 61.44s27.507566 61.44 61.44 61.44z m304.274286 0c33.929509 0 61.44-27.507566 61.44-61.44s-27.510491-61.44-61.44-61.44c-33.932434 0-61.44 27.507566-61.44 61.44s27.507566 61.44 61.44 61.44z" fill="#FFFFFF" p-id="5788"></path><path d="M375.954286 421.302857c18.581211 0 33.645714-15.064503 33.645714-33.645714s-15.064503-33.645714-33.645714-33.645714-33.645714 15.064503-33.645715 33.645714 15.064503 33.645714 33.645715 33.645714z m304.274285 0c18.581211 0 33.645714-15.064503 33.645715-33.645714s-15.064503-33.645714-33.645715-33.645714-33.645714 15.064503-33.645714 33.645714 15.064503 33.645714 33.645714 33.645714z" fill="#5E3424" p-id="5789"></path><path d="M402.04288 302.805577c11.986651 3.282651 24.295131-3.534263 27.495863-15.222491 3.197806-11.688229-3.923383-23.824091-15.907109-27.103817-11.983726-3.282651-24.295131 3.534263-27.495863 15.222491-3.197806 11.688229 3.923383 23.824091 15.907109 27.103817z m228.808411 0.196023c-12.381623 3.390903-25.011931-3.33824-28.212662-15.026469-3.197806-11.688229 4.245211-23.911863 16.626834-27.29984 12.378697-3.390903 25.011931 3.335314 28.212663 15.026469 3.197806 11.688229-4.245211 23.911863-16.626835 27.29984zM391.030491 746.560366c-9.89184-10.111269-18.066286-18.470034-45.316388-5.79584-13.856183 6.442423-25.962789 4.499749-37.656869 2.62144s-22.975634-3.689326-35.18464 3.016411c-9.801143 5.380389-13.692343 13.221303-17.747383 21.38112-5.023451 10.122971-10.295589 20.734537-27.384685 27.753326-31.612343 12.981394-41.170651 41.077029-36.419292 69.269211 4.75136 28.192183 66.507337 118.403657 169.436892 93.435612 102.929554-24.970971 120.966583-102.443886 110.67392-143.52384-7.96672-31.790811-24.59648-38.525806-45.369052-46.94016-6.067931-2.4576-12.4928-5.05856-19.154651-8.467017-6.816914-3.490377-11.512686-8.291474-15.877852-12.750263z m355.521098 179.258514c20.11136 9.403246 64.851383 17.887817 65.334125-23.411566 0.602697-51.627154-28.531566-149.477669-134.108891-122.464548-105.577326 27.01312-117.040274 107.455634-112.212846 122.464548 4.824503 15.005989 15.082057 36.018469 48.86528 23.411566 8.247589 20.00896 33.543314 50.66752 68.777692 13.206674 13.472914 11.805257 45.006263 25.693623 63.34464-13.206674z" fill="#FFE4CA" p-id="5790"></path><path d="M406.247131 765.176686c-7.519086-3.80928-12.949211-8.721554-17.194422-12.908252a408.517486 408.517486 0 0 1-3.203658-3.206583c-2.712137-2.741394-4.58752-4.634331-6.84032-6.2464-2.3552-1.685211-4.616777-2.615589-8.016457-2.609737-3.85024 0.005851-9.900617 1.225874-19.540845 5.664183-17.952183 8.268069-33.838811 5.737326-46.074149 3.7888l-0.640731-0.1024c-12.712229-2.021669-20.877897-3.03104-29.935909 1.892937-7.050971 3.832686-9.572937 8.800549-14.031726 17.586469-0.497371 0.974263-1.015223 1.995337-1.565257 3.066148-5.617371 10.924617-13.487543 23.420343-33.508206 31.55968-14.265783 5.801691-22.899566 14.625646-27.662628 24.614035-4.85376 10.175634-6.088411 22.431451-3.882423 35.404068 0.86016 5.049783 4.880091 14.918217 13.02528 26.945829 7.949166 11.737966 19.227794 24.63744 33.537463 35.889737 28.455497 22.378789 68.581669 38.104503 119.085348 25.974491 51.940206-12.47232 81.206126-37.659794 96.490058-63.643062 15.491657-26.334354 17.14176-54.321737 12.416731-72.987795-4.765989-18.838674-12.311406-26.764434-21.34016-32.23552-5.008823-3.036891-10.740297-5.459383-17.823451-8.309028l-2.042149-0.8192c-6.401463-2.565851-13.692343-5.485714-21.252389-9.3184z m-64.585142-40.565029c11.211337-5.16096 20.755017-7.799954 29.301028-7.811657 8.999497-0.011703 15.942217 2.88768 21.661989 6.977829 4.043337 2.890606 7.799954 6.705737 10.798811 9.745554v0.002926c0.73728 0.748983 1.427749 1.448229 2.06848 2.080182 3.639589 3.589851 7.030491 6.51264 11.334217 8.692298 6.591634 3.341166 12.94336 5.886537 19.43552 8.493348l2.012892 0.807497c6.992457 2.811611 14.379886 5.860206 21.223131 10.005943 14.672457 8.894171 25.737509 22.162286 31.899063 46.51008 6.20544 24.520411 3.741989 58.850743-14.935771 90.597669-18.88256 32.098011-53.84192 60.761234-111.197623 74.535497-58.792229 14.122423-106.101029-4.447086-139.01824-30.333806-16.378149-12.878994-29.268846-27.60704-38.449737-41.167726-8.987794-13.268114-15.055726-26.369463-16.717532-36.138422-2.837943-16.664869-1.521371-33.9968 5.830949-49.409463 7.440091-15.602834 20.667246-28.370651 39.971108-36.220343 12.753189-5.184366 17.185646-12.176823 21.509852-20.579474 0.47104-0.9216 0.956709-1.895863 1.462857-2.916938v-0.002925c4.213029-8.507977 9.941577-20.076251 23.768503-27.592412 16.483474-8.961463 31.934171-6.498011 43.941303-4.581668l0.848457 0.134583c12.516206 1.989486 22.094994 3.308983 33.250743-1.828572z m465.843931 181.953097c0.318903-27.408091-6.193737-66.053851-25.424457-93.625783-9.417874-13.502171-21.670766-24.066926-37.56032-29.821805-15.910034-5.760731-36.744046-7.159223-64.093623-0.125806-55.56224 14.286263-85.117806 42.247314-100.398811 67.443566-7.738514 12.75904-11.942766 25.017783-13.920549 34.798445-0.988891 4.891794-1.39264 9.040457-1.442377 12.200229-0.049737 3.177326 0.272091 4.66944 0.3072 4.830354l0.002926 0.014629c2.583406 8.077897 5.699291 14.309669 10.090788 17.627428 3.13344 2.366903 9.827474 5.412571 25.597074-0.500297l13.288595-4.985417 5.383314 13.130606c4.011154 9.783589 11.498057 20.087954 19.8656 24.011337 3.662994 1.717394 7.59808 2.29376 12.317257 0.968411 5.020526-1.407269 11.998354-5.286766 20.670172-14.552502l9.698742-10.359955 10.6496 9.376915c6.044526 5.3248 15.386331 10.266331 23.885532 10.327771a19.096137 19.096137 0 0 0 11.430766-3.548891c3.856091-2.688731 8.434834-7.671223 12.756114-16.884298l6.217143-13.253485 13.25056 6.22592c10.187337 4.789394 23.990857 8.484571 34.020205 6.998308 4.581669-0.67584 7.375726-2.270354 9.172115-4.376868 1.831497-2.153326 4.128183-6.61504 4.236434-15.918812z m-134.363429-151.908937c31.80544-8.177371 58.79808-7.20896 81.340709 0.950857 22.560183 8.168594 39.377189 23.08096 51.592046 40.594286 24.034743 34.453211 31.044754 79.9744 30.687817 110.706103-0.16384 13.952731-3.721509 25.737509-11.220114 34.543908-7.53664 8.850286-17.55136 12.928731-27.15648 14.350629-12.934583 1.916343-26.723474-0.687543-38.060618-4.426606-4.599223 6.831543-9.859657 12.299703-15.746194 16.40448a48.344503 48.344503 0 0 1-28.367726 8.800549c-12.141714-0.087771-23.288686-4.411977-32.042422-9.654857-8.0896 6.805211-16.334263 11.416137-24.748618 13.777188-11.986651 3.361646-23.118994 1.811017-32.633417-2.647771-12.843886-6.018194-22.285166-17.033509-28.534491-27.48416-16.375223 3.505006-30.055863 0.810423-40.81664-7.314286-12.168046-9.192594-17.504549-23.238949-20.327863-32.062903-2.486857-7.773623-2.141623-19.549623 0.321829-31.755703 2.609737-12.911177 7.995977-28.370651 17.580617-44.172434 19.365303-31.92832 55.386697-64.473966 118.131565-80.60928z" fill="#5E3424" p-id="5791"></path><path d="M386.194286 819.2a17.554286 17.554286 0 1 1 0-35.108571 17.554286 17.554286 0 0 1 0 35.108571z m-70.217143 8.777143a17.554286 17.554286 0 1 1 0-35.108572 17.554286 17.554286 0 0 1 0 35.108572z m-93.622857 19.017143a19.017143 19.017143 0 1 0 38.034285 0 19.017143 19.017143 0 0 0-38.034285 0z m129.129325 81.481143c-37.604206 9.15456-72.677669-2.264503-78.338925-25.509303-5.658331-23.2448 20.240091-49.508937 57.847223-58.666423 37.604206-9.15456 72.677669 2.267429 78.338925 25.509303 5.658331 23.2448-20.240091 49.508937-57.847223 58.666423z" fill="#FF8F8E" opacity=".8" p-id="5792"></path></svg>