<?xml version="1.0" standalone="no"?><!DOCTYPE svg PUBLIC "-//W3C//DTD SVG 1.1//EN" "http://www.w3.org/Graphics/SVG/1.1/DTD/svg11.dtd"><svg t="1762168685082" class="icon" viewBox="0 0 1024 1024" version="1.1" xmlns="http://www.w3.org/2000/svg" p-id="5061" xmlns:xlink="http://www.w3.org/1999/xlink" width="32" height="32"><path d="M237.919086 918.764983s156.768549-7.835063 260.953234-8.788846c115.758811-1.059109 300.163657 8.788846 300.163657 8.788846l191.318309 21.632731s-298.896823 17.712274-491.481966 17.577692C309.979429 957.843749 35.108571 940.397714 35.108571 940.397714l202.810515-21.632731z" fill="#000000" opacity=".5" p-id="5062"></path><path d="M145.214903 78.82752c4.555337-6.729143 13.02528-15.684754 25.781394-14.333074 10.491611 1.111771 27.390537 6.035749 46.650514 12.603977 19.766126 6.73792 43.476114 15.72864 68.312503 25.755063 44.696137 18.039954 93.561417 39.637577 130.323017 57.870628A533.735131 533.735131 0 0 1 512 152.137143c35.064686 0 69.210697 3.3792 102.022583 9.777737 35.986286-17.855634 82.727497-38.654537 125.595063-56.118126 24.611109-10.026423 48.104594-19.017143 67.692251-25.760914 19.075657-6.562377 35.842926-11.498057 46.273097-12.612754 12.498651-1.337051 21.024183 7.267474 25.719955 13.838628 5.117074 7.159223 9.371063 16.828709 13.039908 27.4432 7.422537 21.480594 13.80352 50.936686 19.21024 82.970332 10.8544 64.3072 18.233051 141.80352 21.717577 193.536 0.084846 1.287314 0.002926 2.548297-0.231131 3.759543C957.671131 437.39136 971.337143 490.876343 971.337143 547.108571c0 218.138331-205.651383 394.971429-459.337143 394.971429S52.662857 765.246903 52.662857 547.108571c0-60.840229 15.997806-118.465097 44.573257-169.940114 3.569371-51.311177 9.37984-124.442331 18.285715-185.888183 4.713326-32.554423 10.395063-62.551771 17.299748-84.436114 3.408457-10.810514 7.431314-20.6848 12.393326-28.01664z m754.758217 256.743131c-3.996526-44.061257-9.812846-94.851657-17.267566-139.027017-5.336503-31.612343-11.401509-59.143314-18.013623-78.280411-3.349943-9.692891-6.509714-16.237714-9.189668-19.98848a20.772571 20.772571 0 0 0-1.114697-1.439452c-7.285029 1.211246-20.158171 4.880091-37.557395 10.866103-18.911817 6.506789-41.869897 15.289783-66.173805 25.1904-30.483017 12.419657-62.829714 26.498194-91.656777 39.906743 100.343223 29.12256 185.162606 87.2448 240.973531 162.772114z m-308.068937-147.924114a14.628571 14.628571 0 0 0 20.450743 7.90528 845.560686 845.560686 0 0 1 5.833874-2.993006C806.754011 233.135543 942.08 379.242789 942.08 547.108571c0 197.988937-188.25216 365.714286-430.08 365.714286S81.92 745.097509 81.92 547.108571c0-51.73248 12.852663-101.399406 36.155977-146.549028a14.613943 14.613943 0 0 0 7.694629-11.910583l0.169691-2.472229c55.442286-95.916617 158.983314-169.261349 285.997349-194.896457 0.904046 0.462263 1.799314 0.918674 2.68288 1.375086a14.628571 14.628571 0 0 0 19.08736-5.260434 509.29664 509.29664 0 0 1 78.292114-5.997715c27.387611 0 54.08768 2.147474 79.904183 6.252252zM275.008366 129.983634c31.808366 12.84096 65.626697 27.451977 95.451428 41.264275-99.00032 27.542674-183.290149 83.207314-240.133851 156.031268 3.452343-42.320457 8.080823-89.924754 14.148754-131.803428 4.663589-32.188709 10.082011-60.275566 16.249417-79.828115 3.124663-9.906469 6.129371-16.591726 8.718629-20.412708 0.362789-0.538331 0.678766-0.965486 0.94208-1.296092 7.402057 1.237577 20.362971 4.903497 37.820708 10.8544 19.093211 6.509714 42.27072 15.289783 66.802835 25.1904zM171.394194 92.870949a0.731429 0.731429 0 0 1-0.193097 0.152137c0.128731-0.119954 0.193097-0.160914 0.193097-0.152137z m682.027886 3.025188a0.672914 0.672914 0 0 0 0.187246 0.137509c-0.125806-0.108251-0.187246-0.146286-0.187246-0.137509z" fill="#2A3136" p-id="5063"></path><path d="M174.08 90.697143c33.358994 3.607406 171.353234 58.002286 245.733669 96.258926A501.005166 501.005166 0 0 1 512 178.468571c35.477211 0 69.950903 3.680549 102.929554 10.623269 74.143451-37.999177 203.164526-90.422126 236.453303-94.0032C885.420617 91.419794 898.194286 294.034286 904.045714 392.045714l1.462857 1.462857c26.387017 47.771063 36.571429 97.233189 36.571429 153.6 0 203.594606-192.55296 368.64-430.08 368.64S81.92 750.703177 81.92 547.108571c0-56.834926 15.005989-110.665143 41.808457-158.74048L122.88 389.12c5.851429-105.325714 17.171017-302.103406 51.2-298.422857z" fill="#818E93" p-id="5064"></path><path d="M177.88928 140.434286c34.175269 20.143543 117.332846 72.197851 100.837669 82.306194-48.888686 29.965166-117.543497 86.884937-128.936229 101.235566-11.392731 14.350629 6.834469-174.477897 28.09856-183.54176z m671.147154 0c-34.175269 20.143543-117.332846 72.197851-100.837668 82.306194 48.888686 29.965166 117.543497 86.884937 128.936228 101.235566 11.392731 14.350629-6.834469-174.477897-28.09856-183.54176z" fill="#FFDCE1" p-id="5065"></path><path d="M362.788571 555.885714c30.69952 0 68.754286-24.889051 68.754286-55.588571s-38.054766-38.034286-68.754286-38.034286-76.068571 7.334766-76.068571 38.034286 45.369051 55.588571 76.068571 55.588571z m320.365715 0c-30.69952 0-68.754286-24.889051-68.754286-55.588571s38.054766-38.034286 68.754286-38.034286 76.068571 7.334766 76.068571 38.034286-45.369051 55.588571-76.068571 55.588571z" fill="#FFF7A2" p-id="5066"></path><path d="M377.417143 892.860709c0 11.0592-2.884754 18.733349-7.176777 24.640365-4.514377 6.217143-11.881326 12.220709-23.309166 17.451886C323.341166 945.757623 287.840549 950.857143 244.297143 950.857143s-79.044023-5.09952-102.634057-15.904183c-11.42784-5.231177-18.794789-11.234743-23.309166-17.451886-4.292023-5.907017-7.176777-13.581166-7.176777-24.640365 0-22.870309 12.744411-49.122743 37.443291-70.489235C172.985783 801.294629 206.871406 787.017143 244.297143 787.017143c37.425737 0 71.31136 14.277486 95.676708 35.354331C364.672731 843.737966 377.417143 869.9904 377.417143 892.860709z m29.257143 0C406.674286 959.704503 333.976137 980.114286 244.297143 980.114286S81.92 959.704503 81.92 892.860709C81.92 826.01984 154.618149 757.76 244.297143 757.76s162.377143 68.25984 162.377143 135.100709z m500.297143 0c0 11.0592-2.884754 18.733349-7.176778 24.640365-4.514377 6.217143-11.881326 12.220709-23.309165 17.451886-23.590034 10.804663-59.090651 15.904183-102.634057 15.904183s-79.044023-5.09952-102.634058-15.904183c-11.42784-5.231177-18.794789-11.234743-23.309165-17.451886-4.292023-5.907017-7.176777-13.581166-7.176777-24.640365 0-22.870309 12.744411-49.122743 37.443291-70.489235C702.540069 801.294629 736.425691 787.017143 773.851429 787.017143c37.425737 0 71.31136 14.277486 95.676708 35.354331C894.227017 843.737966 906.971429 869.9904 906.971429 892.860709z m29.257142 0C936.228571 959.704503 863.530423 980.114286 773.851429 980.114286s-162.377143-20.409783-162.377143-87.253577C611.474286 826.01984 684.172434 757.76 773.851429 757.76s162.377143 68.25984 162.377142 135.100709z" fill="#2A3136" p-id="5067"></path><path d="M244.297143 959.634286c73.520274 0 133.12-16.65024 133.12-71.179703S317.817417 778.24 244.297143 778.24 111.177143 833.92512 111.177143 888.454583C111.177143 942.984046 170.776869 959.634286 244.297143 959.634286z m529.554286 0c73.520274 0 133.12-16.65024 133.12-71.179703S847.371703 778.24 773.851429 778.24 640.731429 833.92512 640.731429 888.454583C640.731429 942.984046 700.331154 959.634286 773.851429 959.634286z" fill="#808C93" p-id="5068"></path><path d="M290.927177 873.790903a8.777143 8.777143 0 1 0-17.124206-3.853166c-2.363977 10.497463-4.251063 27.11552-2.23232 43.379566 1.980709 15.989029 8.04864 33.83296 23.727543 43.54048a8.777143 8.777143 0 0 0 9.242332-14.926994c-8.897097-5.506194-13.800594-16.676571-15.550172-30.772663-1.714469-13.824-0.087771-28.361874 1.936823-37.367223z m-98.075794 11.969097a8.777143 8.777143 0 0 0-16.9984-4.388571c-2.153326 8.349989-4.049189 21.714651-2.878903 35.383588 1.158583 13.49632 5.459383 28.882651 17.302674 39.245532a8.777143 8.777143 0 0 0 11.556572-13.212526c-6.88128-6.02112-10.377509-15.991954-11.369326-27.533897-0.974263-11.369326 0.643657-22.726949 2.387383-29.494126z m541.71648-9.043383a8.780069 8.780069 0 0 1 17.127131-3.853166c2.363977 10.497463 4.248137 27.11552 2.23232 43.379566-1.983634 15.989029-8.04864 33.83296-23.730468 43.54048a8.777143 8.777143 0 0 1-9.239406-14.926994c8.897097-5.506194 13.800594-16.676571 15.550171-30.772663 1.711543-13.824 0.087771-28.361874-1.939748-37.367223z m98.075794 11.969097a8.777143 8.777143 0 0 1 16.9984-4.388571c2.156251 8.349989 4.052114 21.714651 2.878903 35.383588-1.155657 13.49632-5.459383 28.882651-17.299749 39.245532a8.777143 8.777143 0 0 1-11.559497-13.212526c6.88128-6.02112 10.380434-15.991954 11.369326-27.533897 0.974263-11.369326-0.640731-22.726949-2.387383-29.494126z" fill="#2A3136" p-id="5069"></path><path d="M666.343131 608.639269c22.683063-5.760731 57.81504-14.277486 89.488823-21.111955 15.833966-3.414309 30.834103-6.416091 42.996297-8.440685 6.079634-1.012297 11.480503-1.787611 15.936366-2.244023 4.397349-0.453486 8.074971-0.620251 10.611566-0.336457a2.925714 2.925714 0 1 1-0.649509 5.813394c-1.866606-0.207726-5.011749-0.105326-9.362285 0.342308-4.289097 0.441783-9.558309 1.193691-15.573578 2.197212-12.030537 2.001189-26.928274 4.982491-42.724205 8.388023-31.586011 6.813989-66.644846 15.313189-89.284023 21.062217a2.925714 2.925714 0 0 1-1.439452-5.670034z m-308.753554 14.611017c-25.202103-5.757806-64.228206-14.27456-99.412846-21.106103-17.589394-3.414309-34.245486-6.413166-47.747657-8.43776-6.746697-1.009371-12.735634-1.78176-17.671314-2.238172-4.877166-0.453486-8.9088-0.6144-11.656046-0.336457a2.925714 2.925714 0 1 0 0.585143 5.822172c2.144549-0.216503 5.696366-0.108251 10.532572 0.339383 4.783543 0.444709 10.6496 1.196617 17.343634 2.200137 13.379291 2.004114 29.944686 4.988343 47.498971 8.393874 35.10272 6.816914 74.064457 15.31904 99.222675 21.068069a2.925714 2.925714 0 0 0 1.304868-5.705143z m-77.43488 31.556754c-35.18464 6.831543-74.210743 15.348297-99.412846 21.106103a2.925714 2.925714 0 0 0 1.304869 5.705143c25.161143-5.749029 64.119954-14.251154 99.222674-21.068069 17.554286-3.405531 34.11968-6.38976 47.498972-8.393874 6.691109-1.00352 12.560091-1.755429 17.343634-2.200137 4.836206-0.447634 8.388023-0.555886 10.532571-0.339383a2.925714 2.925714 0 0 0 0.585143-5.822172c-2.747246-0.277943-6.77888-0.117029-11.658971 0.336458-4.932754 0.456411-10.921691 1.2288-17.668389 2.238171-13.502171 2.024594-30.158263 5.023451-47.747657 8.43776z m545.616457 9.4208c-22.683063-5.760731-57.81504-14.277486-89.488823-21.111954-15.833966-3.414309-30.834103-6.416091-42.996297-8.440686-6.079634-1.012297-11.480503-1.787611-15.936365-2.244023-4.397349-0.453486-8.074971-0.620251-10.611566-0.336457a2.925714 2.925714 0 1 0 0.649508 5.813394c1.869531-0.207726 5.011749-0.105326 9.362286 0.342309 4.289097 0.441783 9.558309 1.193691 15.573577 2.197211 12.030537 2.001189 26.928274 4.982491 42.724206 8.388023 31.586011 6.813989 66.644846 15.313189 89.284023 21.062217a2.925714 2.925714 0 0 0 1.439451-5.670034z" fill="#FFFFFF" p-id="5070"></path><path d="M361.325714 529.554286c20.199131 0 36.571429-14.409143 36.571429-32.182857s-16.372297-32.182857-36.571429-32.182858-36.571429 14.409143-36.571428 32.182858 16.372297 32.182857 36.571428 32.182857z m323.291429 0c-20.199131 0-36.571429-14.409143-36.571429-32.182857s16.372297-32.182857 36.571429-32.182858 36.571429 14.409143 36.571428 32.182858-16.372297 32.182857-36.571428 32.182857z" fill="#4D585F" p-id="5071"></path><path d="M354.011429 491.52a5.851429 5.851429 0 1 0 0.002925-11.699931A5.851429 5.851429 0 0 0 354.011429 491.52z m321.828571 0a5.851429 5.851429 0 1 1-0.002926-11.699931A5.851429 5.851429 0 0 1 675.84 491.52z" fill="#FFFFFF" p-id="5072"></path><path d="M538.331429 567.538834c18.481737-0.257463 32.182857-1.778834 32.182857-10.699337 0-10.503314-18.993737-27.285211-42.422857-27.285211s-42.422857 16.781897-42.422858 27.285211c0 9.385691 15.163977 10.579383 35.108572 10.728594V600.233691c-0.254537 0.380343-1.00352 1.266834-2.99008 2.694583-3.724434 2.677029-9.333029 5.471086-16.623909 8.964389l-2.287908 1.094217c-13.484617 6.433646-31.123749 14.850926-43.02848 27.60704a8.777143 8.777143 0 1 0 12.832183 11.977874c9.561234-10.245851 24.447269-17.369966 38.797897-24.239543l1.26976-0.608548c6.939794-3.323611 14.055131-6.781806 19.283383-10.538423l0.59392-0.435931c0.854309 0.959634 1.746651 1.898789 2.659474 2.814537 5.629074 5.658331 13.212526 11.667749 20.714057 17.390445 2.434194 1.854903 4.85376 3.677623 7.235291 5.46816l0.002926 0.002926 0.002926 0.002926c5.166811 3.8912 10.140526 7.633189 14.599314 11.234743 6.752549 5.450606 10.986057 9.546606 12.630309 12.1856a8.777143 8.777143 0 1 0 14.903588-9.274515c-3.428937-5.50912-9.982537-11.30496-16.50688-16.571245-4.698697-3.791726-10.070309-7.837989-15.365851-11.825737h-0.002926c-2.320091-1.749577-4.625554-3.484526-6.852023-5.18144-7.522011-5.737326-14.224823-11.10016-18.914743-15.813486-2.349349-2.361051-3.894126-4.265691-4.768914-5.708069a7.422537 7.422537 0 0 1-0.582217-1.129325 16.77312 16.77312 0 0 0-0.011703-0.377418 8.493349 8.493349 0 0 0-0.035108-1.024v-31.404617z" fill="#2A3136" p-id="5073"></path><path d="M404.43904 435.132709c19.769051 9.216 38.856411 10.125897 42.633509 2.02752 3.774171-8.098377-9.192594-22.133029-28.964572-31.351955-19.771977-9.216-38.859337-10.122971-42.633508-2.02752-3.774171 8.098377 9.192594 22.135954 28.964571 31.351955z m221.394651 0c-19.771977 9.216-38.859337 10.125897-42.633508 2.02752-3.774171-8.098377 9.192594-22.133029 28.964571-31.351955 19.769051-9.216 38.856411-10.122971 42.630583-2.02752 3.777097 8.098377-9.189669 22.135954-28.961646 31.351955z" fill="#68747C" p-id="5074"></path></svg>