<?xml version="1.0" standalone="no"?><!DOCTYPE svg PUBLIC "-//W3C//DTD SVG 1.1//EN" "http://www.w3.org/Graphics/SVG/1.1/DTD/svg11.dtd"><svg t="1762167558155" class="icon" viewBox="0 0 1024 1024" version="1.1" xmlns="http://www.w3.org/2000/svg" p-id="2859" xmlns:xlink="http://www.w3.org/1999/xlink" width="32" height="32"><path d="M244.262034 957.006994s159.407543-7.963794 265.347657-8.935131c117.710263-1.076663 305.219291 8.935131 305.219292 8.935131L1009.371429 979.00544s-303.931977 18.010697-499.761738 17.873189C317.536549 996.746971 38.034286 979.00544 38.034286 979.00544l206.227748-21.998446z" fill="#000000" opacity=".5" p-id="2860"></path><path d="M169.486629 189.059657c-27.490011 84.292754-48.040229 186.289006-42.376046 260.134034l0.193097 2.51904-0.649509 2.440046-0.441782 1.676434 0.134582 1.509669c4.558263 50.825509 11.22304 125.126949-21.445485 144.720457 0.017554 14.350629 0.851383 27.884983 2.513188 40.480183l0.53248-0.523703 25.289875 72.88832a133.433051 133.433051 0 0 0-3.838538 4.982492c38.098651 95.471909 99.591314 152.587703 153.474195 174.539337 53.724891 21.887269 154.539154 45.01504 262.378057 41.679725 107.856457-3.33824 220.361874-33.037166 300.315794-114.132114 27.118446-27.507566 45.761097-58.119314 57.537097-90.729326a126.1568 126.1568 0 0 0-2.320091-2.954971l13.733303-39.581989c4.929829-26.957531 5.997714-54.86592 3.996525-83.178057-13.481691-18.57536-15.620389-52.066011-14.368182-85.451337-5.57056-21.700023-12.448914-43.3152-20.292755-64.605623l-1.076663-2.919863 0.187246-3.107108c8.841509-148.237166-7.55712-242.922057-28.127817-300.4416-10.286811-28.765623-21.536183-48.019749-31.003794-60.035657-4.739657-6.018194-8.9088-10.061531-12.132937-12.57472-1.878309-1.462857-3.180251-2.21184-3.899978-2.574629a18.727497 18.727497 0 0 0-0.394971 0.08192c-1.612069 0.356937-3.967269 1.062034-7.124114 2.226469-6.28736 2.325943-14.599314 6.053303-24.476526 11.024091-19.692983 9.909394-44.544 24.216137-69.912869 40.524069-25.368869 16.310857-50.968869 34.435657-72.235885 51.919725-21.650286 17.802971-37.4784 33.879771-44.713692 46.006858l-5.892388 9.877211-11.044572-3.218286c-22.890789-6.673554-52.466834-9.739703-81.036434-10.222445-28.534491-0.482743-54.816183 1.626697-70.813989 4.698697l-10.939245 2.100663-5.093669-9.906469c-35.57376-69.175589-74.450651-112.122149-106.177097-137.6256-15.886629-12.770743-29.94176-21.138286-40.863451-26.252434-10.073234-4.716251-16.477623-6.202514-18.929372-6.49216a9.827474 9.827474 0 0 0-0.617326 0.38912c-1.445303 0.974263-3.566446 2.837943-6.293211 6.003565-5.453531 6.325394-11.887177 16.144091-18.914743 29.242515-13.981989 26.062263-29.145966 62.888229-42.838308 104.866377z m743.359634 258.972526c8.584046-149.161691-7.861394-247.140937-29.997349-309.049052-11.146971-31.167634-23.815314-53.408914-35.646903-68.426605-5.909943-7.498606-11.73504-13.355886-17.214902-17.627429-5.198994-4.052114-11.10016-7.472274-17.156389-8.625006-4.447086-0.848457-8.86784-0.111177-11.85792 0.550035-3.414309 0.754834-7.150446 1.942674-11.009463 3.370423-7.744366 2.864274-17.159314 7.129966-27.533897 12.352365-20.816457 10.474057-46.586149 25.336686-72.627931 42.074697-26.041783 16.740937-52.642377 35.547429-75.041646 53.9648-12.94336 10.643749-24.950491 21.527406-34.690194 32.11264 1.693989-12.045166 1.334126-22.089143-5.046858-19.254125-9.894766 4.397349-14.628571 20.137691-16.070948 29.157668-21.580069-4.107703-45.275429-5.965531-67.4816-6.340023-19.760274-0.336457-38.89152 0.497371-54.962469 2.132846-1.299017-8.870766-6.015269-25.377646-16.185051-29.897874-4.932754-2.194286-6.269806 3.314834-5.839726 11.492206-32.864549-56.056686-67.680549-93.608229-97.900251-117.900435-17.577691-14.1312-33.639863-23.806537-46.887497-30.009051-12.691749-5.942126-24.195657-9.356434-32.334995-9.356434-6.550674 0-12.179749 2.638994-16.477623 5.541302-4.376869 2.954971-8.440686 6.898834-12.176822 11.234743-7.4752 8.671817-15.096686 20.620434-22.595292 34.602423-15.076206 28.09856-30.875063 66.68288-44.906788 109.705509-27.656777 84.795977-49.394834 189.80864-43.941303 269.095497-1.427749 5.441829-2.794057 10.857326-4.090149 16.243566-15.675977 22.683063-30.398171 55.257966-40.260754 100.975177-15.573577 72.197851-1.378011 65.240503 20.82816 51.899245-1.664731 15.272229-4.125257 33.209783-14.880183 41.814309-19.429669 15.54432-6.562377 26.278766 24.578926 15.649646 0.234057 0.915749 0.47104 1.825646 0.713874 2.732617-9.701669 22.882011-15.13472 54.356846-2.978377 91.691886 6.372206 19.57888 15.95392 3.080777 28.967497-19.39456 41.027291 90.360686 103.03488 147.611063 161.508206 171.432228 57.624869 23.478857 162.584869 47.326354 274.519771 43.862309 111.920274-3.46112 233.188206-34.336183 320.582217-122.9824 24.69888-25.052891 43.010926-52.250331 56.015726-80.840412l1.050331 1.813943h0.002926c13.042834 22.528 22.642103 39.105097 29.026012 19.49696 12.794149-39.298194 6.10304-72.098377-4.540709-95.229074l0.078994 0.029257c32.724114 11.89888 46.656366 1.029851 26.776137-14.874331-10.757851-8.604526-13.218377-26.54208-14.880182-41.817235 22.206171 13.344183 36.401737 20.298606 20.82816-51.89632-15.690606-72.747886-43.692617-112.212846-68.262766-131.507931zM238.594926 48.338651l-0.023406 0.008778 0.017554-0.005852h0.005852z" fill="#000000" p-id="2861"></path><path d="M245.3504 46.811429c-38.967589 0-132.777691 256.02048-121.358629 405.199725-22.966857 86.58944-28.198034 164.59776-12.864365 219.662629 34.640457 124.392594 107.572663 198.88128 172.938971 225.569646 108.040777 44.110994 399.313189 91.358354 561.68448-73.695818 101.030766-102.695497 86.598217-245.894583 40.412892-371.536457C903.483977 161.078126 828.76416 74.278034 807.497143 70.217143c-21.267017-4.060891-199.8848 99.541577-233.41056 155.855726-47.90272-13.993691-120.527726-12.150491-154.097372-5.687589C349.24544 82.519771 264.115931 46.811429 245.353326 46.811429z" fill="#000000" p-id="2862"></path><path d="M310.245669 598.87616c41.688503 11.579977 56.81152 10.19904 80.325485-7.437166 30.281143-22.709394 49.374354-98.175269 63.961966-239.487268 4.9152-47.598446-19.523291-118.160823-16.360594-132.388572 2.246949-15.412663 133.874834-8.923429 136.850285 5.950903 3.054446 15.286857-17.849783 62.475703-20.825234 126.437669 4.461714 153.213806 29.169371 194.767726 60.986514 230.56384 11.901806 13.388069 28.2624 18.41152 53.549349 16.360594 55.038537-4.461714 158.43328-66.402011 200.812251-7.437166 19.613989 27.291063 22.314423 126.437669-31.237851 209.738606-72.747886 113.166629-251.386149 136.850286-321.299017 136.850286-138.409691 0-208.249417-38.675017-261.798766-81.811749-53.549349-43.139657-105.61536-105.612434-95.202743-205.276891 10.427246-99.781486 123.465143-59.500251 150.238355-52.063086z" fill="#FFFFFF" p-id="2863"></path><path d="M509.571657 783.327817c-80.36352-2.138697-147.262903-56.5248-156.186331-126.437668 69.909943 62.475703 106.566217 20.825234 163.623497 20.825234 55.038537 0 75.863771 50.573897 159.161783-22.311497 0 56.5248-62.513737 130.694583-166.598949 127.923931z" fill="#000000" p-id="2864"></path><path d="M447.060846 800.621714c-5.7344-42.12736-0.494446-85.764389 10.395063-113.02912L585.142857 684.617143c-2.475154 26.770286-9.204297 73.766034-4.452937 113.02912 4.13696 34.207451-11.8784 65.439451-65.3312 65.439451-44.541074 0-63.842011-29.745737-68.297874-62.464z" fill="#FF8F8E" p-id="2865"></path><path d="M592.457143 683.154286l-2.086034-3.396755c-0.43008 4.701623-0.974263 9.944503-1.559406 15.602835-2.919863 28.116114-6.904686 66.466377-2.975452 99.392365 2.223543 18.651429-0.863086 37.393554-12.598125 51.542309-11.811109 14.239451-31.389989 22.642103-59.634835 22.642103-24.049371 0-41.875749-8.209554-54.239817-21.410377-12.229486-13.060389-18.619246-30.468389-20.992-48.151406-5.930423-44.192914-0.579291-90.188069 10.91584-119.395474l1.477486-3.750766 141.692343 6.925166z m-133.38624 5.122925c-9.640229 27.106743-14.207269 68.871314-8.762514 109.44512 2.144549 15.980251 7.799954 30.705371 17.782491 41.363749 9.845029 10.515017 24.39168 17.609874 45.512411 17.609874 25.962789 0 41.609509-7.662446 50.424686-18.291565 8.885394-10.713966 11.822811-25.638034 9.847954-42.180023-4.110629-34.470766 0.073143-74.591086 2.995932-102.613577 0.295497-2.843794 0.579291-5.561783 0.83968-8.136412l-118.64064 2.802834z" fill="#DF413F" p-id="2866"></path><path d="M530.396891 689.614263c-10.412617 11.901806-19.336046 31.831771-19.336045 81.811748v2.671178c0.53248 15.44192 0.04096 20.97152 0 0-0.88064-25.632183-4.581669-78.575909-17.849783-82.993738-4.461714-1.486263-5.950903-13.388069 37.185828-1.489188z" fill="#D74D4B" p-id="2867"></path><path d="M505.724343 631.415954c34.166491 0 61.867154-25.649737 61.867154-47.668663 0-22.021851-27.700663-30.948206-61.867154-30.948205-34.169417 0-61.87008 8.926354-61.87008 30.948205 0 22.018926 27.700663 47.668663 61.87008 47.668663z m-130.23232 17.042286a11.89888 11.89888 0 0 0-21.858012 9.412023c4.371017 10.152229 14.845074 25.365943 31.550903 35.734674 17.261714 10.71104 40.717166 15.915886 69.266286 5.839726 43.751131-15.438994 78.099017-11.881326 113.953646 0.067291 19.16928 6.38976 42.613029 5.892389 62.604434-0.772388 19.868526-6.623817 38.888594-20.330789 44.775131-42.522332a11.901806 11.901806 0 1 0-23.004891-6.10304c-3.048594 11.492206-13.589943 20.813531-29.295177 26.047635-15.58528 5.193143-33.727634 5.383314-47.55456 0.772388-39.763383-13.253486-79.658423-17.486994-129.398492 0.067292-21.4016 7.554194-37.35552 3.478674-48.795062-3.619109-11.995429-7.445943-19.511589-18.57536-22.244206-24.92416z" fill="#000000" p-id="2868"></path><path d="M485.431589 573.87008c0.830903 2.524891-3.464046 6.208366-9.596343 8.224183-6.129371 2.018743-11.773074 1.609143-12.603977-0.915749-0.830903-2.524891 3.466971-6.208366 9.596342-8.224183 6.129371-2.018743 11.773074-1.609143 12.603978 0.915749z" fill="#FFFFFF" opacity=".6" p-id="2869"></path><path d="M505.7536 526.020023c-20.339566-0.447634-39.95648 4.294949-51.97824 12.893623a8.923429 8.923429 0 1 1-10.38336-14.517395c16.24064-11.618011 40.1408-16.720457 62.756571-16.223085 22.557257 0.497371 46.173623 6.623817 61.390263 20.04992a8.923429 8.923429 0 0 1-11.808183 13.385143c-10.801737-9.529051-29.578971-15.140571-49.977051-15.588206z" fill="#000000" opacity=".1" p-id="2870"></path><path d="M662.785463 576.564663c29.57312 0 53.549349-23.973303 53.549348-53.549349 0-29.57312-23.976229-53.549349-53.549348-53.549348-29.576046 0-53.552274 23.976229-53.552274 53.549348 0 29.576046 23.976229 53.549349 53.552274 53.549349z m-315.35104 5.950903c29.576046 0 53.549349-23.976229 53.549348-53.549349 0-29.576046-23.973303-53.552274-53.549348-53.552274s-53.549349 23.976229-53.549349 53.552274c0 29.57312 23.973303 53.549349 53.549349 53.549349z" fill="#FFFFFF" p-id="2871"></path><path d="M652.36992 540.865097c15.608686 0 28.2624-12.653714 28.2624-28.2624s-12.653714-28.2624-28.2624-28.2624-28.2624 12.653714-28.2624 28.2624 12.653714 28.2624 28.2624 28.2624zM337.021806 546.816c15.608686 0 28.2624-12.653714 28.2624-28.2624s-12.653714-28.2624-28.2624-28.2624-28.2624 12.653714-28.2624 28.2624 12.653714 28.2624 28.2624 28.2624z" fill="#000000" p-id="2872"></path><path d="M643.446491 517.064411a10.409691 10.409691 0 1 0 0.002926-20.822308 10.409691 10.409691 0 0 0-0.002926 20.822308z m-312.372662 2.975452a10.415543 10.415543 0 1 0 0-20.825234 10.415543 10.415543 0 0 0 0 20.825234z" fill="#FFFFFF" p-id="2873"></path><path d="M757.982354 591.438994c27.931794 0 50.576823-10.655451 50.576823-23.79776 0-13.145234-22.645029-23.800686-50.576823-23.800685-27.931794 0-50.573897 10.655451-50.573897 23.800685 0 13.142309 22.642103 23.79776 50.573897 23.79776zM255.210057 600.365349c27.931794 0 50.573897-10.655451 50.573897-23.800686 0-13.142309-22.645029-23.800686-50.573897-23.800686-27.931794 0-50.576823 10.658377-50.576823 23.800686 0 13.145234 22.645029 23.800686 50.576823 23.800686z" fill="#FF8F8E" p-id="2874"></path><path d="M198.892983 360.465554c-22.299794 0.77824-17.097874-239.229806 55.652937-238.606628 11.966171 0.90112 104.055954 81.197349 101.177051 104.146651-1.644251 13.092571-37.487177 39.953554-76.51328 69.204846-29.374171 22.018926-60.556434 45.386606-80.316708 65.255131z m634.262674 14.874332c22.299794 0.77824 17.1008-239.22688-55.652937-238.603703-11.963246 0.90112-104.053029 81.197349-101.174126 104.143726 1.641326 13.092571 37.484251 39.95648 76.510355 69.207771 29.377097 22.016 60.556434 45.386606 80.316708 65.252206z" fill="#FFFFFF" opacity=".2" p-id="2875"></path><path d="M191.154469 964.286171c-21.562514 10.163931-64.8192 19.33312-65.337052-25.298651-0.646583-55.790446 25.875017-161.531611 139.088457-132.338834 113.207589 29.189851 125.498514 116.1216 120.322926 132.338834-5.175589 16.217234-16.173349 38.923703-52.399543 25.298651-8.841509 21.62688-35.968731 54.754743-73.74848 14.27456-14.447177 12.756114-48.259657 27.765029-67.926308-14.27456z m657.788342 0.500298c21.076846 10.011794 63.362194 19.043474 63.868343-24.92416 0.631954-54.956617-25.295726-159.120823-135.960868-130.363978-110.665143 28.756846-122.681051 114.389577-117.619566 130.363978 5.05856 15.977326 15.807634 38.344411 51.22048 24.92416 8.64256 21.302126 35.161234 53.935543 72.092526 14.058057 14.122423 12.568869 47.174217 27.352503 66.399085-14.058057z" fill="#FFFFFF" p-id="2876"></path><path d="M133.245806 942.077074c-0.321829-27.870354 6.296137-67.168549 25.854537-95.202743 9.575863-13.730377 22.030629-24.4736 38.192274-30.325028 16.176274-5.85728 37.361371-7.279177 65.170286-0.128732 56.501394 14.529097 86.551406 42.958263 102.0928 68.581669 7.867246 12.972617 12.14464 25.439086 14.15168 35.383589 1.006446 4.973714 1.418971 9.192594 1.468708 12.405028 0.049737 3.229989-0.275017 4.75136-0.310125 4.912274l-0.002926 0.014629c-2.630217 8.215406-5.79584 14.552503-10.263406 17.925851-3.186103 2.404937-9.991314 5.503269-26.027154-0.512l-13.513874-5.067337-5.474012 13.35296c-4.078446 9.947429-11.688229 20.427337-20.199131 24.415086-3.724434 1.743726-7.726811 2.331794-12.524983 0.985966-5.105371-1.4336-12.200229-5.377463-21.018331-14.798263l-9.859658-10.535497-10.830994 9.534903c-6.146926 5.412571-15.64672 10.438949-24.286354 10.503314a19.438446 19.438446 0 0 1-11.623863-3.610332c-3.920457-2.732617-8.578194-7.799954-12.972617-17.171017l-6.322469-13.47584-13.472914 6.331246c-10.357029 4.871314-24.394606 8.630857-34.593646 7.118263-4.657737-0.690469-7.498606-2.308389-9.324251-4.452937-1.86368-2.188434-4.201326-6.723291-4.309577-16.185052z m136.627931-154.468937c-32.340846-8.31488-59.789897-7.33184-82.709943 0.968412-22.940526 8.306103-40.044251 23.47008-52.463908 41.275977-24.438491 35.035429-31.568457 81.323154-31.202743 112.569783 0.16384 14.189714 3.780023 26.17344 11.40736 35.129051 7.665371 8.999497 17.846857 13.145234 27.615817 14.593463 13.151086 1.948526 27.174034-0.702171 38.701349-4.502674 4.675291 6.948571 10.023497 12.507429 16.012434 16.679497a49.181257 49.181257 0 0 0 28.844617 8.94976c12.346514-0.090697 23.680731-4.48512 32.580754-9.818697 8.224183 6.92224 16.60928 11.609234 25.164069 14.00832 12.191451 3.42016 23.51104 1.8432 33.183451-2.691658 13.063314-6.120594 22.659657-17.320229 29.017235-27.946422 16.65024 3.566446 30.562011 0.822126 41.501257-7.437166 12.375771-9.344731 17.802971-23.630994 20.673097-32.601234 2.527817-7.90528 2.179657-19.880229-0.32768-32.291109-2.653623-13.12768-8.13056-28.847543-17.87904-44.918491-19.690057-32.466651-56.317074-65.559406-120.118126-81.966812z m639.847863 154.468937c0.321829-27.870354-6.299063-67.168549-25.854537-95.202743-9.578789-13.730377-22.033554-24.4736-38.192274-30.325028-16.176274-5.85728-37.364297-7.279177-65.173212-0.128732-56.498469 14.529097-86.551406 42.958263-102.0928 68.581669-7.867246 12.972617-12.141714 25.439086-14.15168 35.383589-1.006446 4.973714-1.416046 9.192594-1.468708 12.405028-0.049737 3.229989 0.277943 4.748434 0.313051 4.912274v0.014629c2.630217 8.215406 5.798766 14.552503 10.263406 17.925851 3.186103 2.404937 9.991314 5.503269 26.03008-0.512l13.510948-5.067337 5.474012 13.35296c4.078446 9.947429 11.691154 20.427337 20.202057 24.415086 3.724434 1.743726 7.726811 2.331794 12.524983 0.985966 5.102446-1.4336 12.200229-5.377463 21.015405-14.798263l9.862583-10.535497 10.830995 9.534903c6.146926 5.412571 15.643794 10.438949 24.286354 10.503314a19.429669 19.429669 0 0 0 11.620937-3.610332c3.923383-2.732617 8.578194-7.799954 12.975543-17.171017l6.319543-13.47584 13.472914 6.331246c10.359954 4.871314 24.394606 8.630857 34.593646 7.118263 4.657737-0.690469 7.501531-2.308389 9.327177-4.452937 1.86368-2.188434 4.1984-6.723291 4.309577-16.185052z m-136.627931-154.468937c32.340846-8.31488 59.789897-7.33184 82.709942 0.968412 22.940526 8.306103 40.041326 23.47008 52.463909 41.275977 24.438491 35.035429 31.565531 81.323154 31.199817 112.569783-0.16384 14.189714-3.780023 26.17344-11.40736 35.129051-7.662446 8.999497-17.846857 13.145234-27.615817 14.593463-13.14816 1.948526-27.171109-0.702171-38.701349-4.502674-4.675291 6.948571-10.023497 12.507429-16.009508 16.679497a49.181257 49.181257 0 0 1-28.844617 8.94976c-12.346514-0.090697-23.680731-4.48512-32.58368-9.818697-8.224183 6.92224-16.60928 11.609234-25.164069 14.00832-12.191451 3.42016-23.51104 1.8432-33.183451-2.691658-13.060389-6.120594-22.659657-17.320229-29.017235-27.946422-16.647314 3.566446-30.559086 0.822126-41.501257-7.437166-12.375771-9.344731-17.800046-23.630994-20.670171-32.601234-2.530743-7.90528-2.179657-19.880229 0.32768-32.291109 2.653623-13.12768 8.13056-28.847543 17.876114-44.918491 19.690057-32.466651 56.32-65.559406 120.121052-81.966812z" fill="#000000" p-id="2877"></path></svg>